<svg id="svg" xmlns="http://www.w3.org/2000/svg" xmlns:xlink="http://www.w3.org/1999/xlink" width="400" height="360.53333333333336" viewBox="0, 0, 400,360.53333333333336"><g id="svgg"><path id="path0" d="M33.992 0.542 C 33.742 0.826,33.296 0.964,33.000 0.851 C 32.703 0.737,32.462 0.843,32.462 1.088 C 32.462 1.428,32.344 1.433,31.953 1.109 C 31.569 0.790,31.381 0.789,31.186 1.103 C 30.992 1.418,30.866 1.418,30.671 1.102 C 30.476 0.787,30.173 0.793,29.443 1.126 C 28.721 1.455,28.591 1.652,28.935 1.897 C 29.249 2.122,29.138 2.170,28.584 2.049 C 28.138 1.951,27.773 1.991,27.773 2.138 C 27.773 2.470,26.649 2.404,26.053 2.036 C 25.775 1.864,25.609 1.967,25.609 2.310 C 25.609 3.051,24.394 3.690,23.908 3.205 C 23.658 2.955,23.471 3.018,23.323 3.402 C 23.203 3.717,23.293 3.968,23.528 3.968 C 23.835 3.968,23.828 4.089,23.502 4.415 C 23.154 4.763,22.994 4.766,22.785 4.429 C 22.630 4.178,22.167 4.086,21.688 4.211 C 21.068 4.374,20.980 4.505,21.340 4.733 C 21.677 4.947,21.550 5.040,20.916 5.044 C 20.415 5.047,19.816 5.363,19.573 5.752 C 19.326 6.147,18.843 6.398,18.469 6.326 C 17.983 6.233,17.811 6.408,17.829 6.976 C 17.846 7.519,17.666 7.723,17.234 7.651 C 16.893 7.594,16.418 7.862,16.178 8.247 C 15.936 8.634,15.511 8.857,15.223 8.746 C 14.825 8.593,14.762 8.748,14.950 9.413 C 15.102 9.946,15.075 10.106,14.881 9.829 C 14.633 9.474,14.416 9.494,13.865 9.920 C 13.175 10.454,13.176 10.458,13.886 10.246 C 14.474 10.071,14.508 10.103,14.067 10.420 C 13.769 10.634,13.039 10.810,12.444 10.810 C 11.613 10.810,11.488 10.728,11.903 10.460 C 12.365 10.161,12.352 10.109,11.812 10.105 C 11.465 10.102,11.181 10.343,11.181 10.640 C 11.181 10.938,11.329 11.181,11.510 11.181 C 11.904 11.181,11.832 11.877,11.360 12.624 C 11.173 12.922,11.066 13.449,11.123 13.796 C 11.194 14.227,10.990 14.427,10.483 14.427 C 10.073 14.427,9.739 14.265,9.739 14.067 C 9.739 13.868,9.576 13.706,9.378 13.706 C 8.937 13.706,9.061 14.508,9.558 14.873 C 9.757 15.018,9.549 15.140,9.096 15.143 C 8.643 15.146,8.169 15.420,8.041 15.752 C 7.914 16.084,7.513 16.653,7.151 17.015 C 6.789 17.377,6.492 17.987,6.492 18.371 C 6.492 18.754,6.181 19.167,5.800 19.287 C 5.223 19.470,5.159 19.684,5.415 20.574 C 5.695 21.551,5.645 21.641,4.828 21.641 C 4.324 21.641,3.961 21.837,3.994 22.092 C 4.126 23.108,3.946 23.834,3.612 23.628 C 3.390 23.491,3.344 23.842,3.488 24.565 C 3.654 25.393,3.601 25.648,3.302 25.463 C 3.073 25.321,2.885 25.387,2.885 25.609 C 2.885 25.830,2.698 25.896,2.468 25.754 C 2.182 25.577,2.114 25.741,2.254 26.273 C 2.366 26.701,2.317 27.137,2.146 27.243 C 1.975 27.349,1.929 27.681,2.045 27.982 C 2.162 28.287,1.971 28.736,1.613 28.998 C 1.260 29.256,1.087 29.654,1.229 29.882 C 1.372 30.114,1.277 30.300,1.013 30.303 C 0.670 30.307,0.689 30.404,1.082 30.658 C 1.542 30.956,1.545 31.009,1.100 31.013 C 0.714 31.017,0.683 31.125,0.982 31.424 C 1.485 31.927,1.178 32.822,0.502 32.822 C -0.308 32.822,-0.246 325.888,0.564 326.199 C 0.874 326.318,1.017 326.594,0.882 326.813 C 0.747 327.031,0.842 327.595,1.094 328.065 C 1.468 328.765,1.462 329.028,1.060 329.513 C 0.639 330.020,0.661 330.173,1.213 330.577 C 1.568 330.836,1.891 331.265,1.931 331.530 C 1.971 331.794,2.150 332.245,2.328 332.531 C 2.535 332.862,2.506 333.099,2.248 333.185 C 2.026 333.259,1.939 333.566,2.054 333.868 C 2.224 334.309,2.322 334.323,2.560 333.938 C 2.804 333.542,2.936 333.545,3.321 333.953 C 3.690 334.343,3.694 334.480,3.336 334.611 C 3.088 334.702,2.885 334.934,2.885 335.128 C 2.885 335.322,3.024 335.394,3.194 335.289 C 3.364 335.184,3.424 335.509,3.328 336.011 C 3.191 336.727,3.326 336.968,3.952 337.132 C 4.553 337.289,4.631 337.416,4.269 337.646 C 3.925 337.864,3.913 337.953,4.227 337.957 C 4.468 337.960,4.592 338.165,4.501 338.413 C 4.202 339.229,4.977 340.047,5.442 339.405 C 5.763 338.961,5.804 338.999,5.670 339.619 C 5.569 340.086,5.752 340.527,6.150 340.776 C 6.562 341.033,6.724 341.442,6.601 341.914 C 6.452 342.482,6.581 342.651,7.160 342.651 C 7.714 342.651,7.852 342.810,7.682 343.251 C 7.527 343.655,7.590 343.766,7.874 343.591 C 8.142 343.425,8.296 343.591,8.296 344.045 C 8.296 344.438,8.775 345.239,9.362 345.826 C 9.948 346.412,10.313 347.018,10.173 347.173 C 10.033 347.328,10.201 347.354,10.546 347.230 C 11.320 346.952,11.242 347.772,10.460 348.126 C 10.130 348.275,10.386 348.381,11.112 348.397 C 11.811 348.411,12.213 348.572,12.083 348.783 C 11.874 349.121,12.388 349.308,13.136 349.166 C 13.318 349.131,13.255 349.359,12.994 349.673 C 12.734 349.986,12.625 350.347,12.753 350.475 C 12.880 350.602,12.985 350.517,12.985 350.286 C 12.985 350.054,13.329 349.865,13.750 349.865 C 14.350 349.865,14.429 349.970,14.114 350.349 C 13.630 350.932,13.938 351.334,14.658 351.058 C 14.944 350.948,15.152 351.000,15.121 351.173 C 14.970 352.002,15.187 352.769,15.515 352.566 C 15.717 352.442,15.774 352.165,15.642 351.952 C 15.511 351.739,15.904 351.860,16.516 352.222 C 17.129 352.584,17.599 353.054,17.562 353.266 C 17.524 353.478,17.696 353.611,17.944 353.562 C 18.192 353.512,18.395 353.706,18.395 353.992 C 18.395 354.316,18.664 354.460,19.108 354.375 C 19.547 354.290,20.083 354.571,20.503 355.105 C 20.946 355.669,21.453 355.922,21.947 355.827 C 22.393 355.741,22.674 355.853,22.626 356.097 C 22.573 356.362,22.978 356.475,23.738 356.406 C 24.704 356.319,24.911 356.417,24.820 356.921 C 24.758 357.264,24.932 357.623,25.208 357.719 C 25.555 357.840,25.617 357.741,25.409 357.396 C 25.159 356.980,25.206 356.976,25.697 357.374 C 26.139 357.732,26.466 357.752,27.020 357.456 C 27.627 357.131,27.719 357.158,27.546 357.611 C 27.396 358.000,27.583 358.177,28.185 358.215 C 28.653 358.246,29.245 358.288,29.501 358.309 C 29.757 358.330,30.120 358.589,30.307 358.885 C 30.608 359.361,30.649 359.361,30.665 358.882 C 30.678 358.466,30.826 358.508,31.301 359.062 C 31.940 359.806,32.689 359.961,33.423 359.501 C 33.654 359.357,33.925 359.442,34.025 359.691 C 34.169 360.048,34.214 360.046,34.237 359.681 C 34.258 359.336,34.443 359.312,34.957 359.588 C 35.461 359.857,35.699 359.836,35.832 359.510 C 35.972 359.165,36.093 359.175,36.358 359.554 C 36.649 359.969,36.733 359.969,36.898 359.554 C 37.062 359.141,37.098 359.141,37.122 359.557 C 37.145 359.956,37.256 359.965,37.692 359.603 C 38.126 359.243,38.351 359.252,38.832 359.649 C 39.300 360.035,39.465 360.045,39.584 359.693 C 39.824 358.979,40.397 359.170,40.397 359.964 C 40.397 360.684,40.637 360.685,180.162 360.685 C 319.687 360.685,319.928 360.684,319.928 359.964 C 319.928 359.140,320.303 359.040,320.953 359.690 C 321.309 360.047,321.462 360.039,321.700 359.653 C 321.911 359.312,322.201 359.268,322.677 359.505 C 323.050 359.690,324.125 359.795,325.068 359.738 C 326.163 359.672,326.781 359.781,326.781 360.042 C 326.781 360.267,327.213 360.057,327.740 359.576 C 328.603 358.790,328.676 358.775,328.461 359.423 C 328.226 360.133,328.230 360.134,328.764 359.444 C 329.062 359.059,329.306 358.618,329.306 358.464 C 329.306 358.309,329.509 358.255,329.757 358.342 C 331.121 358.822,332.149 358.790,332.352 358.260 C 332.471 357.950,332.674 357.802,332.802 357.930 C 332.930 358.058,333.413 357.915,333.876 357.612 C 334.338 357.310,334.716 357.183,334.716 357.331 C 334.716 357.479,334.969 357.239,335.277 356.798 C 335.804 356.047,336.800 355.611,336.359 356.325 C 336.247 356.506,336.412 356.617,336.727 356.571 C 337.041 356.524,337.425 356.281,337.580 356.030 C 337.736 355.779,337.966 355.588,338.093 355.605 C 339.152 355.747,340.130 355.573,339.946 355.275 C 339.823 355.077,339.895 354.914,340.105 354.914 C 340.315 354.914,340.492 354.711,340.498 354.463 C 340.523 353.488,341.539 352.574,342.021 353.093 C 342.287 353.380,342.303 353.484,342.061 353.348 C 341.835 353.222,341.429 353.401,341.159 353.746 C 340.705 354.325,340.720 354.332,341.354 353.832 C 341.732 353.535,342.097 353.332,342.165 353.381 C 342.618 353.708,343.319 353.353,343.486 352.714 C 343.596 352.297,343.858 352.063,344.070 352.194 C 344.299 352.336,344.457 352.097,344.460 351.599 C 344.464 351.024,344.557 350.911,344.762 351.234 C 345.183 351.898,346.057 350.803,345.749 349.999 C 345.573 349.540,345.628 349.492,345.988 349.790 C 346.344 350.086,346.662 349.878,347.317 348.923 C 347.946 348.005,348.258 347.793,348.475 348.134 C 348.695 348.481,348.773 348.435,348.777 347.960 C 348.780 347.606,349.008 347.231,349.284 347.125 C 349.597 347.005,349.709 346.637,349.582 346.144 C 349.399 345.434,349.441 345.407,350.003 345.868 C 350.542 346.310,350.612 346.310,350.516 345.868 C 350.456 345.587,350.609 345.397,350.857 345.446 C 351.105 345.496,351.307 345.221,351.307 344.836 C 351.307 344.451,351.495 344.021,351.724 343.879 C 352.004 343.706,352.044 343.787,351.846 344.128 C 351.684 344.407,351.977 344.248,352.496 343.775 C 353.015 343.303,353.429 342.816,353.417 342.693 C 353.360 342.151,353.947 340.848,354.248 340.848 C 354.430 340.848,354.392 340.498,354.164 340.072 C 353.807 339.405,353.833 339.328,354.350 339.526 C 354.681 339.653,354.864 339.615,354.757 339.442 C 354.469 338.976,355.533 338.217,356.036 338.528 C 356.310 338.697,356.374 338.642,356.211 338.379 C 356.070 338.150,356.126 337.962,356.336 337.962 C 356.546 337.962,356.718 337.790,356.718 337.580 C 356.718 337.370,356.567 337.292,356.382 337.406 C 356.197 337.520,355.942 337.444,355.814 337.238 C 355.687 337.031,355.792 336.907,356.048 336.961 C 356.341 337.024,356.504 336.709,356.487 336.116 C 356.467 335.399,356.608 335.210,357.072 335.331 C 357.714 335.499,357.849 334.589,357.311 333.718 C 357.147 333.452,357.226 333.271,357.508 333.268 C 357.851 333.264,357.832 333.167,357.439 332.913 C 357.142 332.720,357.069 332.560,357.277 332.557 C 357.485 332.554,357.818 332.715,358.018 332.914 C 358.260 333.156,358.373 332.709,358.360 331.561 C 358.350 330.618,358.553 329.623,358.812 329.349 C 359.072 329.076,359.192 328.611,359.079 328.317 C 358.928 327.925,359.043 327.847,359.509 328.024 C 360.012 328.216,360.052 328.174,359.702 327.821 C 359.353 327.469,359.353 327.260,359.702 326.828 C 360.067 326.377,360.050 326.337,359.603 326.601 C 359.137 326.876,359.130 326.835,359.557 326.309 C 359.868 325.926,359.905 325.699,359.656 325.699 C 359.389 325.699,359.366 325.421,359.586 324.843 C 359.801 324.278,359.773 323.849,359.505 323.581 C 359.203 323.279,359.204 323.174,359.506 323.174 C 359.794 323.174,359.815 322.831,359.578 322.004 C 359.150 320.513,359.157 320.289,359.625 320.289 C 359.835 320.289,359.885 320.491,359.736 320.739 C 359.549 321.049,359.654 321.037,360.071 320.699 C 360.405 320.428,360.588 320.063,360.480 319.887 C 360.371 319.711,360.454 319.567,360.664 319.567 C 360.928 319.567,361.046 313.665,361.046 300.451 L 361.046 281.335 380.523 281.335 L 400.000 281.335 400.000 260.775 L 400.000 240.216 380.583 240.216 C 369.904 240.216,361.099 240.149,361.016 240.066 C 360.933 239.984,360.909 231.219,360.962 220.589 L 361.058 201.262 380.529 201.262 L 400.000 201.262 400.000 180.703 L 400.000 160.144 380.304 160.144 C 362.492 160.144,360.629 160.090,360.827 159.574 C 360.947 159.260,361.046 150.495,361.046 140.097 L 361.046 121.190 380.523 121.190 L 400.000 121.190 400.000 100.631 L 400.000 80.072 380.433 80.072 L 360.866 80.072 360.962 60.595 C 361.030 46.874,360.944 41.118,360.670 41.118 C 360.457 41.118,360.368 40.979,360.473 40.810 C 360.578 40.640,360.225 40.585,359.689 40.687 C 358.757 40.865,358.742 40.846,359.352 40.236 C 359.846 39.742,359.895 39.486,359.572 39.096 C 359.249 38.708,359.267 38.592,359.649 38.588 C 360.039 38.583,360.029 38.506,359.603 38.227 C 359.156 37.933,359.146 37.818,359.550 37.557 C 359.924 37.316,359.945 37.069,359.643 36.504 C 359.346 35.949,359.359 35.721,359.696 35.585 C 360.051 35.442,360.051 35.398,359.693 35.376 C 359.445 35.360,359.243 35.175,359.243 34.965 C 359.243 34.755,359.404 34.683,359.602 34.805 C 359.838 34.951,359.846 34.723,359.626 34.144 C 359.441 33.658,359.386 32.893,359.503 32.444 C 359.646 31.898,359.585 31.709,359.317 31.874 C 358.688 32.264,358.065 30.790,358.508 29.961 C 359.004 29.035,358.980 28.757,358.431 29.067 C 358.070 29.270,358.070 29.224,358.431 28.836 C 359.158 28.053,358.954 27.741,357.890 28.006 C 356.996 28.229,356.947 28.194,357.393 27.652 C 357.768 27.198,357.779 27.051,357.439 27.051 C 357.087 27.051,357.084 26.938,357.425 26.527 C 357.855 26.009,356.958 23.805,356.318 23.805 C 356.184 23.805,355.973 23.544,355.851 23.224 C 355.683 22.786,355.785 22.698,356.263 22.864 C 356.799 23.051,356.789 23.001,356.198 22.544 C 355.813 22.246,355.376 22.002,355.227 22.002 C 355.078 22.002,355.018 21.680,355.094 21.286 C 355.170 20.890,354.976 20.428,354.661 20.251 C 354.280 20.038,354.151 19.617,354.272 18.983 C 354.456 18.022,354.045 17.657,353.710 18.485 C 353.541 18.906,353.321 17.867,353.438 17.196 C 353.466 17.032,353.322 17.002,353.117 17.129 C 352.773 17.341,351.626 16.505,351.655 16.063 C 351.697 15.433,351.621 15.386,351.322 15.860 C 351.137 16.152,350.873 16.277,350.735 16.139 C 350.596 16.001,350.681 15.649,350.923 15.358 C 351.279 14.928,351.221 14.740,350.614 14.361 C 350.202 14.104,349.865 13.698,349.865 13.459 C 349.865 13.221,349.523 12.786,349.104 12.493 C 348.642 12.169,348.452 11.786,348.619 11.515 C 348.790 11.239,348.745 11.162,348.503 11.312 C 348.287 11.445,348.008 11.386,347.881 11.181 C 347.754 10.976,347.518 10.891,347.356 10.991 C 347.194 11.091,346.840 10.900,346.569 10.567 C 346.147 10.046,346.154 10.001,346.619 10.250 C 346.916 10.409,346.673 10.121,346.078 9.609 C 345.482 9.098,344.795 8.750,344.550 8.835 C 344.305 8.920,343.935 8.673,343.728 8.286 C 343.520 7.899,343.234 7.621,343.091 7.668 C 342.948 7.716,342.769 7.592,342.693 7.394 C 342.476 6.831,341.242 6.068,340.895 6.283 C 340.723 6.389,340.215 5.996,339.766 5.410 C 339.316 4.824,338.808 4.431,338.636 4.538 C 338.196 4.810,336.827 3.786,337.153 3.427 C 337.300 3.264,337.142 3.231,336.801 3.353 C 336.461 3.475,336.102 3.447,336.005 3.290 C 335.908 3.132,335.461 3.031,335.011 3.064 C 334.075 3.133,333.248 2.517,333.561 1.984 C 333.677 1.785,333.512 1.834,333.194 2.091 C 332.765 2.440,332.550 2.453,332.359 2.143 C 332.168 1.834,332.036 1.832,331.848 2.135 C 331.678 2.411,331.289 2.260,330.653 1.670 C 330.135 1.190,329.606 0.902,329.478 1.030 C 329.140 1.368,327.518 1.348,327.728 1.008 C 327.826 0.850,327.734 0.721,327.524 0.721 C 327.313 0.721,327.142 0.884,327.142 1.082 C 327.142 1.280,326.979 1.443,326.781 1.443 C 326.583 1.443,326.420 1.118,326.420 0.721 C 326.420 -0.238,34.837 -0.417,33.992 0.542 M319.928 180.398 L 319.748 320.108 180.402 320.199 C 90.774 320.257,40.842 320.165,40.456 319.939 C 39.905 319.618,39.907 319.588,40.488 319.578 C 41.089 319.568,41.116 312.801,41.029 180.252 L 40.938 40.938 180.252 41.029 C 278.333 41.093,319.567 41.007,319.567 40.737 C 319.567 40.526,319.689 40.429,319.838 40.521 C 319.986 40.613,320.027 103.558,319.928 180.398 M79.750 129.216 C 79.730 168.328,79.820 178.901,80.169 178.905 C 80.456 178.909,80.422 179.035,80.072 179.261 C 79.711 179.494,79.681 179.612,79.982 179.616 C 80.230 179.619,80.433 179.865,80.433 180.162 C 80.433 181.110,178.909 180.968,179.768 180.019 C 180.249 179.488,180.281 179.293,179.914 179.146 C 179.605 179.023,179.660 178.947,180.072 178.928 C 180.994 178.887,181.063 80.433,180.141 80.433 C 179.832 80.433,179.654 80.311,179.746 80.162 C 179.896 79.919,144.699 79.919,97.475 80.163 C 86.127 80.221,80.020 80.127,79.923 79.892 C 79.842 79.693,79.764 101.889,79.750 129.216 M199.283 80.372 C 198.760 81.734,199.105 139.283,199.639 139.817 C 200.120 140.298,200.180 140.295,200.180 139.791 C 200.180 139.480,200.338 139.225,200.530 139.225 C 200.722 139.225,200.801 139.427,200.706 139.675 C 200.568 140.034,208.582 140.126,240.036 140.126 C 271.697 140.126,279.504 140.036,279.364 139.671 C 279.240 139.347,279.447 139.280,280.082 139.440 L 280.974 139.663 280.968 110.138 C 280.965 93.899,280.844 80.451,280.698 80.252 C 280.253 79.647,199.515 79.765,199.283 80.372 M199.343 159.659 C 199.213 159.789,199.104 186.733,199.100 219.534 L 199.094 279.172 200.058 280.253 L 201.021 281.335 240.052 281.335 C 280.913 281.335,280.610 281.345,279.716 279.899 C 279.585 279.687,279.611 279.536,279.775 279.565 C 279.938 279.593,280.276 279.597,280.525 279.574 C 281.081 279.521,281.190 159.960,280.634 159.616 C 280.452 159.503,280.200 159.576,280.076 159.778 C 279.764 160.282,200.180 160.288,200.180 159.784 C 200.180 159.375,199.698 159.304,199.343 159.659 M79.717 240.121 L 79.711 281.325 129.281 281.332 C 178.593 281.339,178.851 281.336,179.079 280.616 C 179.206 280.218,179.620 279.892,180.000 279.892 C 180.676 279.892,180.691 279.066,180.700 240.397 C 180.708 205.428,180.647 200.902,180.165 200.902 C 179.866 200.902,179.610 200.699,179.596 200.451 C 179.582 200.203,179.425 200.325,179.246 200.721 C 178.975 201.325,178.935 201.267,179.001 200.361 L 179.080 199.279 129.757 199.187 C 90.417 199.114,80.432 199.187,80.427 199.548 C 80.424 199.851,80.307 199.822,80.072 199.459 C 79.845 199.108,79.721 213.387,79.717 240.121 " stroke="none" fill="#fccc04" fill-rule="evenodd"></path><path id="path1" d="" stroke="none" fill="#100cc04" fill-rule="evenodd"></path><path id="path2" d="" stroke="none" fill="#100cc04" fill-rule="evenodd"></path><path id="path3" d="" stroke="none" fill="#100cc04" fill-rule="evenodd"></path><path id="path4" d="" stroke="none" fill="#100cc04" fill-rule="evenodd"></path></g></svg>