<svg id="svg" xmlns="http://www.w3.org/2000/svg" xmlns:xlink="http://www.w3.org/1999/xlink" width="400" height="360.53333333333336" viewBox="0, 0, 400,360.53333333333336"><g id="svgg"><path id="path0" d="M30.658 0.361 C 30.658 0.559,30.026 0.721,29.254 0.721 C 28.339 0.721,27.778 0.910,27.642 1.262 C 27.500 1.633,26.920 1.803,25.800 1.803 C 24.588 1.803,24.166 1.943,24.166 2.344 C 24.166 2.722,23.785 2.885,22.904 2.885 C 22.209 2.885,21.641 3.045,21.641 3.239 C 21.641 3.434,21.228 3.697,20.723 3.824 C 20.217 3.950,19.885 4.135,19.984 4.234 C 20.180 4.430,19.310 5.410,18.940 5.410 C 18.815 5.410,18.816 5.207,18.941 4.959 C 19.067 4.711,18.939 4.790,18.657 5.134 C 18.374 5.478,18.038 5.654,17.908 5.525 C 17.779 5.396,17.674 5.479,17.674 5.711 C 17.674 5.942,17.444 6.132,17.163 6.132 C 16.882 6.132,16.598 6.289,16.531 6.482 C 16.465 6.675,16.087 6.885,15.690 6.949 C 14.769 7.097,12.130 9.592,12.412 10.048 C 12.533 10.243,12.312 10.311,11.903 10.204 C 11.475 10.092,11.181 10.193,11.181 10.451 C 11.181 10.999,9.882 12.677,9.506 12.616 C 9.352 12.591,9.109 12.867,8.966 13.228 C 8.824 13.590,8.696 13.734,8.682 13.548 C 8.668 13.362,8.309 13.582,7.885 14.037 C 7.307 14.658,7.227 14.934,7.566 15.143 C 7.874 15.334,7.690 15.541,6.984 15.798 C 6.416 16.005,6.164 16.187,6.423 16.202 C 6.683 16.218,6.794 16.396,6.669 16.597 C 6.544 16.799,6.291 16.871,6.107 16.756 C 5.922 16.642,5.771 16.893,5.771 17.313 C 5.771 17.733,5.609 17.977,5.410 17.854 C 5.212 17.731,5.029 17.884,5.005 18.193 C 4.911 19.362,4.858 19.510,4.451 19.762 C 4.221 19.904,3.977 20.507,3.910 21.101 C 3.839 21.727,3.597 22.144,3.336 22.092 C 3.059 22.036,2.885 22.403,2.885 23.045 C 2.885 23.640,2.653 24.178,2.344 24.296 C 2.047 24.411,1.803 24.895,1.803 25.373 C 1.803 25.851,1.589 26.420,1.327 26.637 C 1.065 26.854,0.813 27.888,0.766 28.935 C 0.720 29.982,0.528 30.893,0.341 30.959 C -0.141 31.129,-0.121 329.306,0.361 329.306 C 0.559 329.306,0.721 330.026,0.721 330.907 C 0.721 331.788,0.888 332.612,1.091 332.738 C 1.294 332.863,1.416 332.832,1.362 332.669 C 1.307 332.505,1.425 332.347,1.623 332.317 C 1.821 332.288,1.920 332.450,1.843 332.678 C 1.545 333.553,1.851 335.255,2.356 335.538 C 2.682 335.720,2.885 336.382,2.885 337.259 C 2.885 338.285,3.037 338.683,3.427 338.683 C 3.787 338.683,3.968 339.044,3.968 339.766 C 3.968 340.361,4.130 340.848,4.328 340.848 C 4.527 340.848,4.689 341.091,4.689 341.389 C 4.689 341.686,4.860 341.930,5.068 341.930 C 5.277 341.930,5.618 342.417,5.825 343.012 C 6.032 343.607,6.430 344.094,6.708 344.094 C 6.986 344.094,7.214 344.254,7.214 344.450 C 7.214 345.077,8.410 346.230,8.811 345.990 C 9.024 345.863,8.975 346.033,8.702 346.369 C 8.408 346.732,8.363 346.979,8.592 346.979 C 8.803 346.979,9.256 347.452,9.597 348.031 C 9.939 348.609,10.618 349.264,11.107 349.487 C 11.596 349.710,11.901 349.987,11.784 350.103 C 11.444 350.443,13.093 351.604,13.626 351.400 C 13.911 351.290,14.192 351.530,14.311 351.982 C 14.421 352.405,14.670 352.750,14.863 352.750 C 15.056 352.750,15.687 353.197,16.266 353.742 C 16.845 354.288,17.520 354.756,17.767 354.783 C 18.013 354.809,18.435 354.850,18.704 354.873 C 19.000 354.898,19.105 355.144,18.970 355.496 C 18.812 355.908,18.903 356.017,19.283 355.871 C 19.578 355.758,19.961 355.921,20.136 356.233 C 20.311 356.545,20.999 356.864,21.665 356.941 C 22.332 357.019,23.009 357.318,23.170 357.605 C 23.353 357.933,23.908 358.094,24.656 358.035 C 25.425 357.974,25.849 358.102,25.849 358.395 C 25.849 358.646,25.689 358.751,25.493 358.630 C 25.297 358.509,25.236 358.570,25.357 358.767 C 25.478 358.963,26.193 359.109,26.946 359.091 C 27.747 359.072,28.512 359.284,28.791 359.602 C 29.054 359.900,29.167 359.943,29.043 359.698 C 28.895 359.403,29.009 359.324,29.377 359.466 C 29.685 359.584,29.937 359.811,29.937 359.971 C 29.937 360.131,30.843 360.232,31.951 360.197 C 33.059 360.161,34.042 360.256,34.136 360.408 C 34.230 360.560,99.798 360.684,179.843 360.683 C 259.887 360.682,325.294 360.545,325.190 360.377 C 325.087 360.209,325.799 360.149,326.773 360.242 C 329.151 360.471,331.227 360.069,330.981 359.429 C 330.842 359.068,331.045 358.983,331.746 359.111 C 333.037 359.345,334.355 358.976,334.355 358.381 C 334.355 358.051,334.709 357.936,335.456 358.023 C 336.107 358.098,336.467 358.007,336.339 357.799 C 336.213 357.595,336.372 357.544,336.717 357.676 C 337.045 357.802,337.419 357.758,337.548 357.578 C 337.676 357.399,338.381 356.938,339.112 356.554 C 339.844 356.170,340.363 355.727,340.266 355.570 C 340.168 355.412,340.367 355.390,340.708 355.521 C 341.066 355.658,341.236 355.612,341.112 355.411 C 340.994 355.220,341.240 355.038,341.658 355.007 C 342.077 354.975,342.857 354.436,343.393 353.808 C 344.085 352.997,344.423 352.809,344.562 353.160 C 344.701 353.508,344.767 353.471,344.787 353.032 C 344.804 352.652,345.012 352.488,345.324 352.607 C 345.629 352.725,345.927 352.504,346.069 352.055 C 346.200 351.644,346.479 351.307,346.691 351.307 C 347.140 351.307,348.422 349.909,348.422 349.419 C 348.422 349.234,348.625 349.152,348.873 349.236 C 349.129 349.323,349.660 348.697,350.102 347.787 C 350.696 346.565,350.921 346.344,351.052 346.853 C 351.205 347.449,351.228 347.453,351.266 346.889 C 351.289 346.542,351.536 346.258,351.815 346.258 C 352.158 346.258,352.256 346.004,352.117 345.476 C 351.957 344.860,352.038 344.742,352.500 344.919 C 352.823 345.043,353.175 345.003,353.282 344.830 C 353.389 344.657,353.272 344.434,353.023 344.333 C 352.663 344.188,352.662 344.145,353.021 344.122 C 353.269 344.107,353.472 343.850,353.472 343.553 C 353.472 343.255,353.715 343.012,354.013 343.012 C 354.316 343.012,354.554 342.690,354.554 342.279 C 354.554 341.876,354.801 341.451,355.104 341.335 C 355.528 341.172,355.559 341.010,355.240 340.625 C 354.938 340.262,354.936 340.126,355.231 340.126 C 355.454 340.126,355.636 339.807,355.636 339.416 C 355.636 338.996,355.820 338.777,356.087 338.879 C 356.536 339.052,357.421 337.085,357.554 335.618 C 357.590 335.221,357.904 334.780,358.251 334.637 C 358.733 334.440,358.882 333.954,358.882 332.575 C 358.882 331.209,359.000 330.816,359.368 330.958 C 359.740 331.100,359.871 330.619,359.922 328.916 C 359.959 327.690,360.182 326.343,360.418 325.923 C 360.969 324.940,360.980 324.507,361.016 301.082 L 361.046 281.335 380.523 281.335 L 400.000 281.335 400.000 260.415 L 400.000 239.495 380.523 239.495 L 361.046 239.495 361.046 220.379 L 361.046 201.262 380.523 201.262 L 400.000 201.262 400.000 180.343 L 400.000 159.423 380.523 159.423 L 361.046 159.423 361.046 140.307 L 361.046 121.190 380.523 121.190 L 400.000 121.190 400.000 100.451 L 400.000 79.711 380.523 79.711 L 361.046 79.711 361.023 59.603 C 361.010 48.544,360.997 38.390,360.995 37.039 C 360.991 34.956,360.913 34.648,360.477 35.009 C 360.040 35.372,359.964 34.999,359.964 32.506 C 359.964 30.170,359.857 29.576,359.434 29.576 C 359.093 29.576,358.977 29.801,359.108 30.207 C 359.251 30.654,359.214 30.705,358.980 30.380 C 358.799 30.128,358.696 29.114,358.752 28.126 C 358.830 26.761,358.731 26.330,358.338 26.330 C 358.005 26.330,357.904 26.117,358.053 25.730 C 358.198 25.350,358.140 25.218,357.895 25.370 C 357.647 25.523,357.576 25.344,357.698 24.876 C 357.806 24.463,357.634 23.859,357.305 23.496 C 356.983 23.140,356.685 22.427,356.642 21.910 C 356.600 21.393,356.396 21.000,356.190 21.035 C 355.984 21.071,355.765 20.573,355.703 19.928 C 355.633 19.202,355.393 18.756,355.072 18.756 C 354.787 18.756,354.554 18.512,354.554 18.215 C 354.554 17.917,354.351 17.671,354.103 17.668 C 353.802 17.664,353.832 17.546,354.193 17.313 C 354.673 17.003,354.673 16.963,354.190 16.958 C 353.890 16.955,353.438 16.621,353.186 16.217 C 352.933 15.812,352.585 15.569,352.411 15.676 C 352.238 15.783,352.181 15.546,352.285 15.149 C 352.390 14.746,352.296 14.427,352.071 14.427 C 351.531 14.427,350.228 13.099,350.213 12.534 C 350.199 11.982,348.966 10.460,348.535 10.460 C 348.362 10.460,347.944 10.135,347.604 9.739 C 347.264 9.342,346.741 9.017,346.442 9.017 C 346.142 9.017,345.938 8.822,345.987 8.583 C 346.037 8.344,345.834 8.133,345.537 8.115 C 345.239 8.097,345.033 7.897,345.078 7.670 C 345.184 7.146,343.886 6.718,343.285 7.079 C 343.015 7.242,343.051 7.078,343.372 6.674 C 343.863 6.060,343.855 6.019,343.282 6.233 C 342.926 6.367,342.651 6.301,342.651 6.082 C 342.651 5.868,342.399 5.790,342.091 5.909 C 341.748 6.040,341.623 5.975,341.769 5.739 C 341.900 5.528,341.647 5.021,341.208 4.612 C 340.643 4.085,340.334 3.991,340.149 4.291 C 339.969 4.583,339.611 4.436,338.985 3.810 C 338.462 3.287,337.588 2.868,336.912 2.817 C 336.269 2.768,335.649 2.576,335.535 2.390 C 335.420 2.205,335.513 2.168,335.742 2.310 C 335.971 2.452,336.159 2.383,336.159 2.158 C 336.159 1.899,335.567 1.785,334.547 1.848 C 333.661 1.903,332.809 1.808,332.654 1.637 C 332.499 1.467,332.574 1.444,332.822 1.587 C 333.101 1.747,333.273 1.631,333.273 1.284 C 333.273 0.513,332.283 0.571,332.079 1.353 C 331.922 1.954,331.912 1.954,331.872 1.353 C 331.840 0.864,331.505 0.721,330.388 0.721 C 329.594 0.721,328.945 0.559,328.945 0.361 C 328.945 0.121,278.990 0.000,179.802 0.000 C 80.613 0.000,30.658 0.121,30.658 0.361 M319.567 180.343 L 319.567 319.567 180.343 319.567 L 41.118 319.567 41.118 180.343 L 41.118 41.118 180.343 41.118 L 319.567 41.118 319.567 180.343 M79.711 130.207 L 79.711 180.703 130.207 180.703 L 180.703 180.703 180.703 130.207 L 180.703 79.711 130.207 79.711 L 79.711 79.711 79.711 130.207 M199.098 110.009 C 199.098 134.004,199.192 140.308,199.549 140.312 C 199.887 140.316,199.879 140.394,199.519 140.623 C 199.128 140.870,199.141 140.967,199.586 141.138 C 199.887 141.253,200.213 141.154,200.309 140.918 C 200.439 140.597,200.491 140.603,200.513 140.938 C 200.554 141.600,279.386 141.600,279.653 140.938 C 279.791 140.596,279.842 140.593,279.863 140.926 C 279.879 141.176,280.139 141.271,280.463 141.147 C 280.923 140.970,280.941 140.868,280.553 140.623 C 280.193 140.394,280.185 140.316,280.523 140.312 C 280.880 140.308,280.974 134.004,280.974 110.009 L 280.974 79.711 240.036 79.711 L 199.098 79.711 199.098 110.009 M199.098 220.379 L 199.098 281.328 240.036 281.328 L 280.974 281.328 280.974 220.379 L 280.974 159.429 240.036 159.429 L 199.098 159.429 199.098 220.379 M79.711 240.216 L 79.711 281.335 129.414 281.335 C 168.676 281.335,179.218 281.240,179.602 280.884 C 179.981 280.532,180.032 280.531,179.836 280.880 C 179.667 281.179,179.768 281.256,180.144 281.111 C 180.645 280.919,180.703 276.628,180.703 239.997 L 180.703 199.098 130.207 199.098 L 79.711 199.098 79.711 240.216 " stroke="none" fill="#cccccc" fill-rule="evenodd"></path><path id="path1" d="M17.855 5.048 C 17.749 5.220,17.827 5.462,18.028 5.587 C 18.230 5.712,18.395 5.647,18.395 5.443 C 18.395 5.239,18.638 5.166,18.936 5.280 C 19.234 5.394,19.477 5.342,19.477 5.165 C 19.477 4.742,18.105 4.643,17.855 5.048 M358.726 29.459 C 358.781 29.955,358.945 30.469,359.091 30.600 C 359.238 30.731,359.256 30.555,359.131 30.207 C 359.006 29.860,359.062 29.576,359.254 29.576 C 359.777 29.576,359.675 28.959,359.115 28.745 C 358.772 28.613,358.657 28.825,358.726 29.459 M79.519 99.729 C 79.519 110.442,79.565 114.772,79.621 109.352 C 79.677 103.933,79.677 95.168,79.621 89.875 C 79.565 84.583,79.519 89.017,79.519 99.729 M79.508 130.207 C 79.508 135.266,79.558 137.335,79.620 134.806 C 79.682 132.277,79.682 128.138,79.620 125.609 C 79.558 123.079,79.508 125.149,79.508 130.207 M79.519 160.144 C 79.519 170.559,79.565 174.820,79.621 169.612 C 79.677 164.405,79.677 155.884,79.621 150.676 C 79.565 145.469,79.519 149.729,79.519 160.144 M79.525 240.216 C 79.525 261.740,79.568 270.546,79.621 259.784 C 79.674 249.022,79.674 231.411,79.621 220.649 C 79.568 209.887,79.525 218.693,79.525 240.216 M360.341 326.029 C 360.062 326.550,360.056 326.781,360.323 326.781 C 360.761 326.781,361.237 325.769,360.939 325.472 C 360.832 325.364,360.563 325.615,360.341 326.029 M1.066 332.391 C 0.742 332.781,0.720 333.056,0.992 333.327 C 1.263 333.599,1.492 333.495,1.771 332.973 C 2.254 332.071,1.706 331.619,1.066 332.391 M355.636 339.176 C 355.636 339.434,355.879 339.645,356.177 339.645 C 356.474 339.645,356.718 339.527,356.718 339.383 C 356.718 339.239,356.474 339.028,356.177 338.914 C 355.867 338.795,355.636 338.907,355.636 339.176 M13.345 351.484 C 13.345 351.613,13.606 351.981,13.925 352.300 C 14.458 352.832,14.495 352.825,14.376 352.214 C 14.257 351.598,13.345 350.952,13.345 351.484 M28.630 359.675 C 28.480 359.917,28.547 359.974,28.799 359.818 C 29.028 359.676,29.216 359.733,29.216 359.943 C 29.216 360.153,29.378 360.325,29.576 360.325 C 30.128 360.325,30.005 359.707,29.407 359.477 C 29.116 359.365,28.766 359.454,28.630 359.675 " stroke="none" fill="#d0cccc" fill-rule="evenodd"></path><path id="path2" d="M17.855 5.048 C 17.749 5.220,17.827 5.462,18.028 5.587 C 18.230 5.712,18.395 5.647,18.395 5.443 C 18.395 5.239,18.638 5.166,18.936 5.280 C 19.234 5.394,19.477 5.342,19.477 5.165 C 19.477 4.742,18.105 4.643,17.855 5.048 M358.726 29.459 C 358.781 29.955,358.945 30.469,359.091 30.600 C 359.238 30.731,359.256 30.555,359.131 30.207 C 359.006 29.860,359.062 29.576,359.254 29.576 C 359.777 29.576,359.675 28.959,359.115 28.745 C 358.772 28.613,358.657 28.825,358.726 29.459 M79.519 99.729 C 79.519 110.442,79.565 114.772,79.621 109.352 C 79.677 103.933,79.677 95.168,79.621 89.875 C 79.565 84.583,79.519 89.017,79.519 99.729 M79.508 130.207 C 79.508 135.266,79.558 137.335,79.620 134.806 C 79.682 132.277,79.682 128.138,79.620 125.609 C 79.558 123.079,79.508 125.149,79.508 130.207 M79.519 160.144 C 79.519 170.559,79.565 174.820,79.621 169.612 C 79.677 164.405,79.677 155.884,79.621 150.676 C 79.565 145.469,79.519 149.729,79.519 160.144 M79.525 240.216 C 79.525 261.740,79.568 270.546,79.621 259.784 C 79.674 249.022,79.674 231.411,79.621 220.649 C 79.568 209.887,79.525 218.693,79.525 240.216 M360.341 326.029 C 360.062 326.550,360.056 326.781,360.323 326.781 C 360.761 326.781,361.237 325.769,360.939 325.472 C 360.832 325.364,360.563 325.615,360.341 326.029 M1.066 332.391 C 0.742 332.781,0.720 333.056,0.992 333.327 C 1.263 333.599,1.492 333.495,1.771 332.973 C 2.254 332.071,1.706 331.619,1.066 332.391 M355.636 339.176 C 355.636 339.434,355.879 339.645,356.177 339.645 C 356.474 339.645,356.718 339.527,356.718 339.383 C 356.718 339.239,356.474 339.028,356.177 338.914 C 355.867 338.795,355.636 338.907,355.636 339.176 M13.345 351.484 C 13.345 351.613,13.606 351.981,13.925 352.300 C 14.458 352.832,14.495 352.825,14.376 352.214 C 14.257 351.598,13.345 350.952,13.345 351.484 M28.630 359.675 C 28.480 359.917,28.547 359.974,28.799 359.818 C 29.028 359.676,29.216 359.733,29.216 359.943 C 29.216 360.153,29.378 360.325,29.576 360.325 C 30.128 360.325,30.005 359.707,29.407 359.477 C 29.116 359.365,28.766 359.454,28.630 359.675 " stroke="none" fill="#d0cccc" fill-rule="evenodd"></path><path id="path3" d="M17.855 5.048 C 17.749 5.220,17.827 5.462,18.028 5.587 C 18.230 5.712,18.395 5.647,18.395 5.443 C 18.395 5.239,18.638 5.166,18.936 5.280 C 19.234 5.394,19.477 5.342,19.477 5.165 C 19.477 4.742,18.105 4.643,17.855 5.048 M358.726 29.459 C 358.781 29.955,358.945 30.469,359.091 30.600 C 359.238 30.731,359.256 30.555,359.131 30.207 C 359.006 29.860,359.062 29.576,359.254 29.576 C 359.777 29.576,359.675 28.959,359.115 28.745 C 358.772 28.613,358.657 28.825,358.726 29.459 M79.519 99.729 C 79.519 110.442,79.565 114.772,79.621 109.352 C 79.677 103.933,79.677 95.168,79.621 89.875 C 79.565 84.583,79.519 89.017,79.519 99.729 M79.508 130.207 C 79.508 135.266,79.558 137.335,79.620 134.806 C 79.682 132.277,79.682 128.138,79.620 125.609 C 79.558 123.079,79.508 125.149,79.508 130.207 M79.519 160.144 C 79.519 170.559,79.565 174.820,79.621 169.612 C 79.677 164.405,79.677 155.884,79.621 150.676 C 79.565 145.469,79.519 149.729,79.519 160.144 M79.525 240.216 C 79.525 261.740,79.568 270.546,79.621 259.784 C 79.674 249.022,79.674 231.411,79.621 220.649 C 79.568 209.887,79.525 218.693,79.525 240.216 M360.341 326.029 C 360.062 326.550,360.056 326.781,360.323 326.781 C 360.761 326.781,361.237 325.769,360.939 325.472 C 360.832 325.364,360.563 325.615,360.341 326.029 M1.066 332.391 C 0.742 332.781,0.720 333.056,0.992 333.327 C 1.263 333.599,1.492 333.495,1.771 332.973 C 2.254 332.071,1.706 331.619,1.066 332.391 M355.636 339.176 C 355.636 339.434,355.879 339.645,356.177 339.645 C 356.474 339.645,356.718 339.527,356.718 339.383 C 356.718 339.239,356.474 339.028,356.177 338.914 C 355.867 338.795,355.636 338.907,355.636 339.176 M13.345 351.484 C 13.345 351.613,13.606 351.981,13.925 352.300 C 14.458 352.832,14.495 352.825,14.376 352.214 C 14.257 351.598,13.345 350.952,13.345 351.484 M28.630 359.675 C 28.480 359.917,28.547 359.974,28.799 359.818 C 29.028 359.676,29.216 359.733,29.216 359.943 C 29.216 360.153,29.378 360.325,29.576 360.325 C 30.128 360.325,30.005 359.707,29.407 359.477 C 29.116 359.365,28.766 359.454,28.630 359.675 " stroke="none" fill="#d0cccc" fill-rule="evenodd"></path><path id="path4" d="M17.855 5.048 C 17.749 5.220,17.827 5.462,18.028 5.587 C 18.230 5.712,18.395 5.647,18.395 5.443 C 18.395 5.239,18.638 5.166,18.936 5.280 C 19.234 5.394,19.477 5.342,19.477 5.165 C 19.477 4.742,18.105 4.643,17.855 5.048 M358.726 29.459 C 358.781 29.955,358.945 30.469,359.091 30.600 C 359.238 30.731,359.256 30.555,359.131 30.207 C 359.006 29.860,359.062 29.576,359.254 29.576 C 359.777 29.576,359.675 28.959,359.115 28.745 C 358.772 28.613,358.657 28.825,358.726 29.459 M79.519 99.729 C 79.519 110.442,79.565 114.772,79.621 109.352 C 79.677 103.933,79.677 95.168,79.621 89.875 C 79.565 84.583,79.519 89.017,79.519 99.729 M79.508 130.207 C 79.508 135.266,79.558 137.335,79.620 134.806 C 79.682 132.277,79.682 128.138,79.620 125.609 C 79.558 123.079,79.508 125.149,79.508 130.207 M79.519 160.144 C 79.519 170.559,79.565 174.820,79.621 169.612 C 79.677 164.405,79.677 155.884,79.621 150.676 C 79.565 145.469,79.519 149.729,79.519 160.144 M79.525 240.216 C 79.525 261.740,79.568 270.546,79.621 259.784 C 79.674 249.022,79.674 231.411,79.621 220.649 C 79.568 209.887,79.525 218.693,79.525 240.216 M360.341 326.029 C 360.062 326.550,360.056 326.781,360.323 326.781 C 360.761 326.781,361.237 325.769,360.939 325.472 C 360.832 325.364,360.563 325.615,360.341 326.029 M1.066 332.391 C 0.742 332.781,0.720 333.056,0.992 333.327 C 1.263 333.599,1.492 333.495,1.771 332.973 C 2.254 332.071,1.706 331.619,1.066 332.391 M355.636 339.176 C 355.636 339.434,355.879 339.645,356.177 339.645 C 356.474 339.645,356.718 339.527,356.718 339.383 C 356.718 339.239,356.474 339.028,356.177 338.914 C 355.867 338.795,355.636 338.907,355.636 339.176 M13.345 351.484 C 13.345 351.613,13.606 351.981,13.925 352.300 C 14.458 352.832,14.495 352.825,14.376 352.214 C 14.257 351.598,13.345 350.952,13.345 351.484 M28.630 359.675 C 28.480 359.917,28.547 359.974,28.799 359.818 C 29.028 359.676,29.216 359.733,29.216 359.943 C 29.216 360.153,29.378 360.325,29.576 360.325 C 30.128 360.325,30.005 359.707,29.407 359.477 C 29.116 359.365,28.766 359.454,28.630 359.675 " stroke="none" fill="#d0cccc" fill-rule="evenodd"></path></g></svg>