<svg id="svg" xmlns="http://www.w3.org/2000/svg" xmlns:xlink="http://www.w3.org/1999/xlink" width="400" height="400" viewBox="0, 0, 400,400"><g id="svgg"><path id="path0" d="M16.000 0.590 C 16.000 1.025,15.701 1.120,14.865 0.953 C 14.178 0.816,13.508 0.938,13.164 1.263 C 12.125 2.246,11.043 3.006,11.306 2.567 C 11.448 2.328,11.320 2.133,11.021 2.133 C 10.717 2.133,10.572 2.382,10.692 2.697 C 10.821 3.032,10.685 3.222,10.354 3.166 C 9.754 3.064,7.600 3.855,7.600 4.178 C 7.600 4.286,7.915 4.278,8.300 4.160 C 8.690 4.040,8.596 4.187,8.087 4.493 C 7.586 4.795,7.301 5.167,7.454 5.321 C 7.608 5.474,7.420 5.600,7.038 5.600 C 6.363 5.600,5.096 6.556,5.379 6.852 C 5.456 6.934,5.267 7.232,4.960 7.516 C 4.652 7.799,4.400 7.936,4.400 7.820 C 4.400 7.703,4.040 7.916,3.600 8.293 C 3.160 8.670,2.803 9.253,2.806 9.589 C 2.812 10.130,2.862 10.131,3.244 9.600 C 3.603 9.101,3.635 9.123,3.438 9.733 C 3.307 10.136,3.200 10.524,3.200 10.595 C 3.200 10.667,2.795 10.650,2.300 10.558 C 1.805 10.466,1.615 10.495,1.878 10.621 C 2.505 10.924,2.080 12.000,1.334 12.000 C 1.002 12.000,0.873 12.195,1.034 12.454 C 1.571 13.323,1.415 14.603,0.710 15.123 C -0.116 15.731,-0.431 300.000,0.394 300.000 C 0.611 300.000,1.247 299.307,1.807 298.461 C 2.368 297.614,3.250 296.694,3.769 296.417 C 4.288 296.139,4.948 295.470,5.237 294.931 C 5.526 294.391,6.252 293.660,6.850 293.307 C 7.448 292.954,8.168 292.234,8.450 291.707 C 8.732 291.180,9.441 290.466,10.027 290.120 C 10.612 289.775,11.375 289.012,11.720 288.427 C 12.066 287.841,12.780 287.132,13.307 286.850 C 13.834 286.568,14.554 285.848,14.907 285.250 C 15.260 284.652,15.980 283.932,16.507 283.650 C 17.034 283.368,17.754 282.648,18.107 282.050 C 18.460 281.452,19.180 280.732,19.707 280.450 C 20.234 280.168,20.954 279.448,21.307 278.850 C 21.660 278.252,22.380 277.532,22.907 277.250 C 23.434 276.968,24.154 276.248,24.507 275.650 C 24.860 275.052,25.580 274.332,26.107 274.050 C 26.634 273.768,27.354 273.048,27.707 272.450 C 28.060 271.852,28.780 271.132,29.307 270.850 C 29.834 270.568,30.554 269.848,30.907 269.250 C 31.260 268.652,31.980 267.932,32.507 267.650 C 33.034 267.368,33.754 266.648,34.107 266.050 C 34.460 265.452,35.211 264.715,35.775 264.414 C 36.339 264.112,36.800 263.724,36.800 263.552 C 36.800 263.147,42.319 257.600,42.722 257.600 C 42.890 257.600,43.325 257.097,43.688 256.481 C 44.052 255.866,44.780 255.132,45.307 254.850 C 45.834 254.568,46.554 253.848,46.907 253.250 C 47.260 252.652,47.980 251.932,48.507 251.650 C 49.034 251.368,49.754 250.648,50.107 250.050 C 50.460 249.452,51.180 248.732,51.707 248.450 C 52.234 248.168,52.954 247.448,53.307 246.850 C 53.660 246.252,54.380 245.532,54.907 245.250 C 55.434 244.968,56.154 244.248,56.507 243.650 C 56.860 243.052,57.580 242.332,58.107 242.050 C 58.634 241.768,59.354 241.048,59.707 240.450 C 60.060 239.852,60.780 239.132,61.307 238.850 C 61.834 238.568,62.554 237.848,62.907 237.250 C 63.260 236.652,63.980 235.932,64.507 235.650 C 65.034 235.368,65.754 234.648,66.107 234.050 C 66.460 233.452,67.180 232.732,67.707 232.450 C 68.234 232.168,68.954 231.448,69.307 230.850 C 69.660 230.252,70.380 229.532,70.907 229.250 C 71.434 228.968,72.154 228.248,72.507 227.650 C 72.860 227.052,73.580 226.332,74.107 226.050 C 74.634 225.768,75.354 225.048,75.707 224.450 C 76.060 223.852,76.816 223.113,77.385 222.808 C 77.955 222.503,78.528 221.828,78.659 221.308 C 78.789 220.788,78.986 220.453,79.096 220.562 C 79.205 220.672,79.557 220.500,79.878 220.179 C 80.385 219.672,93.266 219.610,179.830 219.698 C 234.484 219.754,279.200 219.654,279.200 219.476 C 279.200 219.298,279.425 219.294,279.700 219.466 C 280.361 219.879,281.340 219.882,281.642 219.470 C 281.775 219.289,282.165 219.423,282.510 219.767 C 282.979 220.236,283.186 220.268,283.336 219.896 C 283.481 219.537,283.546 219.553,283.568 219.954 C 283.587 220.280,283.953 220.060,284.456 219.420 C 285.082 218.624,285.395 218.469,285.625 218.841 C 285.878 219.250,286.062 219.247,286.570 218.825 C 286.916 218.538,287.200 218.445,287.200 218.621 C 287.200 218.796,287.679 218.503,288.265 217.970 C 288.850 217.436,289.199 217.225,289.041 217.500 C 288.581 218.298,289.083 218.081,290.139 217.024 C 290.676 216.488,291.223 216.156,291.355 216.288 C 291.487 216.420,291.926 216.229,292.330 215.863 C 292.734 215.498,293.195 215.328,293.354 215.487 C 293.512 215.646,293.512 215.435,293.352 215.018 C 293.124 214.426,293.203 214.315,293.710 214.510 C 294.167 214.686,294.293 214.588,294.137 214.180 C 293.939 213.665,294.391 213.422,295.030 213.700 C 295.538 213.921,296.745 210.614,296.268 210.310 C 295.983 210.129,296.152 210.010,296.700 210.006 C 297.195 210.003,297.579 209.865,297.553 209.700 C 297.350 208.414,297.678 207.600,298.400 207.600 C 298.840 207.600,299.200 207.420,299.200 207.200 C 299.200 206.980,299.009 206.800,298.776 206.800 C 298.543 206.800,298.464 206.620,298.600 206.400 C 298.736 206.180,298.649 206.000,298.408 206.000 C 298.125 206.000,298.152 205.801,298.484 205.442 C 298.768 205.135,299.114 204.953,299.254 205.037 C 299.727 205.322,299.934 203.006,299.463 202.694 C 299.136 202.476,299.206 202.264,299.700 201.973 C 300.085 201.746,300.400 201.379,300.400 201.157 C 300.400 200.934,300.232 200.856,300.028 200.983 C 299.823 201.109,299.542 201.030,299.404 200.807 C 299.266 200.583,299.343 200.400,299.576 200.400 C 300.170 200.400,300.107 199.310,299.500 199.065 C 299.201 198.944,299.282 198.850,299.700 198.832 C 300.789 198.782,300.789 100.803,299.700 100.794 C 299.163 100.789,299.125 100.709,299.534 100.449 C 300.213 100.019,300.213 99.581,299.534 99.151 C 299.125 98.891,299.163 98.811,299.700 98.806 C 300.299 98.801,300.400 98.398,300.400 96.000 C 300.400 93.778,300.276 93.200,299.800 93.200 C 299.427 93.200,299.200 92.822,299.200 92.200 C 299.200 91.578,299.427 91.200,299.800 91.200 C 300.130 91.200,300.400 90.930,300.400 90.600 C 300.400 90.270,300.085 89.997,299.700 89.994 C 299.163 89.989,299.125 89.909,299.534 89.649 C 300.213 89.219,300.213 88.781,299.534 88.351 C 299.125 88.091,299.163 88.011,299.700 88.006 C 300.085 88.003,300.400 87.730,300.400 87.400 C 300.400 87.070,300.130 86.800,299.800 86.800 C 299.400 86.800,299.200 86.400,299.200 85.600 C 299.200 84.940,299.350 84.400,299.533 84.400 C 299.717 84.400,299.867 84.130,299.867 83.800 C 299.867 83.470,299.717 83.200,299.533 83.200 C 299.350 83.200,299.200 82.390,299.200 81.400 C 299.200 80.067,299.356 79.600,299.800 79.600 C 300.328 79.600,300.400 76.067,300.400 50.200 C 300.400 29.774,300.271 20.800,299.976 20.800 C 299.743 20.800,299.664 20.620,299.800 20.400 C 299.936 20.180,299.857 20.000,299.624 20.000 C 299.391 20.000,299.200 19.730,299.200 19.400 C 299.200 19.070,299.394 18.800,299.632 18.800 C 299.900 18.800,299.967 18.361,299.808 17.638 C 299.652 16.925,299.733 16.365,300.020 16.188 C 300.340 15.990,300.181 15.632,299.515 15.050 C 298.304 13.990,297.565 12.364,298.691 13.237 C 299.254 13.673,299.236 13.582,298.600 12.793 C 298.160 12.247,297.639 11.683,297.442 11.540 C 297.245 11.398,297.192 10.998,297.324 10.653 C 297.457 10.308,297.390 9.917,297.176 9.785 C 296.962 9.653,296.889 9.379,297.014 9.177 C 297.140 8.974,296.935 8.927,296.555 9.073 C 296.089 9.251,295.962 9.185,296.158 8.868 C 296.317 8.611,296.276 8.400,296.066 8.400 C 295.430 8.400,295.138 7.089,295.686 6.697 C 296.040 6.445,295.923 6.391,295.314 6.524 C 294.799 6.637,294.464 6.535,294.514 6.283 C 294.561 6.043,294.269 5.775,293.864 5.687 C 293.009 5.502,291.350 3.949,291.506 3.481 C 291.565 3.306,291.295 3.216,290.906 3.281 C 290.479 3.353,290.246 3.184,290.316 2.852 C 290.400 2.455,290.099 2.353,289.216 2.483 C 288.498 2.588,288.000 2.483,288.000 2.227 C 288.000 1.512,286.697 0.960,285.100 1.000 C 284.119 1.024,283.600 0.858,283.600 0.519 C 283.600 0.095,259.147 0.000,149.800 0.000 C 32.141 0.000,16.000 0.071,16.000 0.590 M360.016 79.994 L 340.633 80.200 340.351 81.578 C 339.902 83.772,339.964 259.600,340.414 259.600 C 340.626 259.600,340.800 259.870,340.800 260.200 C 340.800 261.026,339.746 260.958,339.421 260.111 C 339.230 259.611,339.074 259.556,338.856 259.910 C 338.620 260.292,310.487 260.398,209.177 260.401 L 79.800 260.405 79.892 280.094 C 79.943 290.923,80.073 300.012,80.180 300.292 C 80.287 300.571,80.179 300.800,79.938 300.800 C 79.658 300.800,79.635 300.978,79.874 301.300 C 80.079 301.575,80.216 302.201,80.178 302.691 C 80.136 303.247,80.389 303.670,80.855 303.817 C 81.680 304.079,81.825 304.613,81.181 305.012 C 80.902 305.184,80.894 305.431,81.158 305.749 C 81.405 306.047,81.415 306.447,81.183 306.813 C 80.703 307.572,80.697 308.111,81.171 307.818 C 81.375 307.692,81.651 307.932,81.784 308.351 C 81.918 308.770,82.381 309.206,82.813 309.319 C 83.246 309.433,83.597 309.857,83.594 310.263 C 83.589 310.885,83.527 310.906,83.200 310.400 C 82.967 310.039,82.810 309.990,82.806 310.276 C 82.803 310.538,82.983 310.866,83.207 311.004 C 83.430 311.142,83.486 311.468,83.330 311.728 C 83.150 312.028,83.281 312.010,83.690 311.679 C 84.236 311.236,84.372 311.281,84.593 311.979 C 84.737 312.431,85.131 312.800,85.470 312.800 C 85.862 312.800,85.999 313.025,85.847 313.421 C 85.716 313.762,85.768 313.943,85.963 313.823 C 86.157 313.703,86.427 313.892,86.561 314.244 C 86.703 314.614,87.062 314.785,87.413 314.651 C 87.917 314.457,87.942 314.560,87.563 315.270 C 87.178 315.989,87.205 316.084,87.743 315.877 C 88.138 315.726,88.609 315.963,88.989 316.506 C 89.325 316.985,89.600 317.164,89.600 316.902 C 89.600 316.640,89.864 316.527,90.187 316.650 C 90.510 316.774,90.735 317.076,90.687 317.320 C 90.639 317.564,90.870 317.776,91.200 317.791 C 91.530 317.807,91.780 318.098,91.756 318.438 C 91.714 319.037,93.505 319.202,95.182 318.755 C 95.502 318.670,95.773 318.870,95.784 319.200 C 95.799 319.634,96.301 319.812,97.602 319.845 C 98.591 319.869,99.580 319.915,99.800 319.947 C 100.020 319.978,149.655 320.002,210.100 320.000 C 312.548 319.996,320.000 320.041,320.000 320.665 C 320.000 321.032,320.102 321.232,320.226 321.107 C 320.521 320.812,322.297 322.509,322.102 322.900 C 322.020 323.065,322.233 323.200,322.576 323.200 C 322.919 323.200,323.200 323.500,323.200 323.867 C 323.200 324.233,323.302 324.432,323.426 324.307 C 323.721 324.012,325.497 325.709,325.302 326.100 C 325.220 326.265,325.433 326.400,325.776 326.400 C 326.119 326.400,326.400 326.700,326.400 327.067 C 326.400 327.433,326.502 327.632,326.626 327.507 C 326.921 327.212,328.697 328.909,328.502 329.300 C 328.420 329.465,328.633 329.600,328.976 329.600 C 329.319 329.600,329.600 329.900,329.600 330.267 C 329.600 330.633,329.702 330.832,329.826 330.707 C 330.121 330.412,331.897 332.109,331.702 332.500 C 331.620 332.665,331.833 332.800,332.176 332.800 C 332.519 332.800,332.800 333.100,332.800 333.467 C 332.800 333.833,332.902 334.032,333.026 333.907 C 333.321 333.612,335.097 335.309,334.902 335.700 C 334.820 335.865,335.033 336.000,335.376 336.000 C 335.719 336.000,336.000 336.300,336.000 336.667 C 336.000 337.033,336.102 337.232,336.226 337.107 C 336.521 336.812,338.297 338.509,338.102 338.900 C 338.020 339.065,338.233 339.200,338.576 339.200 C 338.919 339.200,339.200 339.500,339.200 339.867 C 339.200 340.233,339.302 340.432,339.426 340.307 C 339.721 340.012,341.497 341.709,341.302 342.100 C 341.220 342.265,341.433 342.400,341.776 342.400 C 342.119 342.400,342.400 342.700,342.400 343.067 C 342.400 343.433,342.502 343.632,342.626 343.507 C 342.921 343.212,344.697 344.909,344.502 345.300 C 344.420 345.465,344.633 345.600,344.976 345.600 C 345.319 345.600,345.600 345.900,345.600 346.267 C 345.600 346.633,345.702 346.832,345.826 346.707 C 346.121 346.412,347.897 348.109,347.702 348.500 C 347.620 348.665,347.833 348.800,348.176 348.800 C 348.519 348.800,348.800 349.100,348.800 349.467 C 348.800 349.833,348.902 350.032,349.026 349.907 C 349.321 349.612,351.097 351.309,350.902 351.700 C 350.820 351.865,351.033 352.000,351.376 352.000 C 351.719 352.000,352.000 352.300,352.000 352.667 C 352.000 353.033,352.102 353.232,352.226 353.107 C 352.521 352.812,354.297 354.509,354.102 354.900 C 354.020 355.065,354.233 355.200,354.576 355.200 C 354.919 355.200,355.200 355.500,355.200 355.867 C 355.200 356.233,355.302 356.432,355.426 356.307 C 355.721 356.012,357.497 357.709,357.302 358.100 C 357.220 358.265,357.433 358.400,357.776 358.400 C 358.119 358.400,358.400 358.700,358.400 359.067 C 358.400 359.433,358.502 359.632,358.626 359.507 C 358.921 359.212,360.697 360.909,360.502 361.300 C 360.420 361.465,360.633 361.600,360.976 361.600 C 361.319 361.600,361.600 361.900,361.600 362.267 C 361.600 362.633,361.702 362.832,361.826 362.707 C 362.121 362.412,363.897 364.109,363.702 364.500 C 363.620 364.665,363.833 364.800,364.176 364.800 C 364.519 364.800,364.800 365.100,364.800 365.467 C 364.800 365.833,364.902 366.032,365.026 365.907 C 365.321 365.612,367.097 367.309,366.902 367.700 C 366.820 367.865,367.033 368.000,367.376 368.000 C 367.719 368.000,368.000 368.281,368.000 368.624 C 368.000 368.967,368.135 369.180,368.300 369.098 C 368.691 368.903,370.388 370.679,370.093 370.974 C 369.968 371.098,370.167 371.200,370.533 371.200 C 370.900 371.200,371.200 371.481,371.200 371.824 C 371.200 372.167,371.335 372.380,371.500 372.298 C 371.891 372.103,373.588 373.879,373.293 374.174 C 373.168 374.298,373.367 374.400,373.733 374.400 C 374.100 374.400,374.400 374.681,374.400 375.024 C 374.400 375.367,374.535 375.580,374.700 375.498 C 375.091 375.303,376.788 377.079,376.493 377.374 C 376.368 377.498,376.567 377.600,376.933 377.600 C 377.300 377.600,377.600 377.881,377.600 378.224 C 377.600 378.567,377.735 378.780,377.900 378.698 C 378.291 378.503,379.988 380.279,379.693 380.574 C 379.568 380.698,379.767 380.800,380.133 380.800 C 380.500 380.800,380.800 381.081,380.800 381.424 C 380.800 381.767,380.935 381.980,381.100 381.898 C 381.491 381.703,383.188 383.479,382.893 383.774 C 382.768 383.898,382.967 384.000,383.333 384.000 C 383.700 384.000,384.000 384.281,384.000 384.624 C 384.000 384.967,384.135 385.180,384.300 385.098 C 384.691 384.903,386.388 386.679,386.093 386.974 C 385.968 387.098,386.167 387.200,386.533 387.200 C 386.900 387.200,387.200 387.481,387.200 387.824 C 387.200 388.167,387.335 388.380,387.500 388.298 C 387.891 388.103,389.588 389.879,389.293 390.174 C 389.168 390.298,389.367 390.400,389.733 390.400 C 390.100 390.400,390.400 390.681,390.400 391.024 C 390.400 391.367,390.535 391.580,390.700 391.498 C 391.091 391.303,392.788 393.079,392.493 393.374 C 392.368 393.498,392.567 393.600,392.933 393.600 C 393.300 393.600,393.600 393.881,393.600 394.224 C 393.600 394.567,393.735 394.780,393.900 394.698 C 394.291 394.503,395.988 396.279,395.693 396.574 C 395.568 396.698,395.767 396.800,396.133 396.800 C 396.500 396.800,396.800 397.100,396.800 397.467 C 396.800 397.833,396.904 398.029,397.031 397.903 C 397.158 397.776,397.762 398.196,398.374 398.836 C 398.986 399.476,399.603 400.000,399.744 400.000 C 399.999 400.000,399.854 95.849,399.599 94.918 C 399.526 94.652,399.336 94.516,399.175 94.615 C 399.015 94.714,398.777 94.517,398.646 94.177 C 398.516 93.837,398.557 93.650,398.738 93.762 C 398.919 93.873,399.067 93.695,399.067 93.365 C 399.067 93.033,398.831 92.856,398.538 92.968 C 398.247 93.080,398.027 93.043,398.048 92.886 C 398.131 92.272,397.487 90.800,397.136 90.800 C 396.932 90.800,396.794 90.575,396.830 90.300 C 396.866 90.025,396.873 89.582,396.847 89.316 C 396.781 88.643,394.728 86.798,394.322 87.048 C 394.140 87.161,393.881 86.704,393.747 86.033 C 393.612 85.362,393.372 84.894,393.212 84.993 C 392.876 85.200,391.173 83.361,391.446 83.087 C 391.546 82.987,391.189 82.989,390.653 83.092 C 389.933 83.230,389.613 83.070,389.425 82.480 C 389.247 81.918,388.933 81.745,388.362 81.894 C 387.773 82.048,387.492 81.874,387.330 81.253 C 387.207 80.784,386.937 80.400,386.730 80.400 C 386.522 80.400,386.451 80.559,386.571 80.753 C 386.899 81.285,384.601 81.065,383.919 80.499 C 383.593 80.228,383.208 80.125,383.063 80.270 C 382.918 80.415,382.800 80.323,382.800 80.067 C 382.800 79.810,382.350 79.600,381.800 79.600 C 381.250 79.600,380.800 79.816,380.800 80.080 C 380.800 80.453,380.693 80.453,380.320 80.080 C 380.056 79.816,379.741 79.642,379.620 79.694 C 379.499 79.746,370.677 79.881,360.016 79.994 " stroke="none" fill="#fccc04" fill-rule="evenodd"></path><path id="path1" d="" stroke="none" fill="#100cc04" fill-rule="evenodd"></path><path id="path2" d="" stroke="none" fill="#100cc04" fill-rule="evenodd"></path><path id="path3" d="" stroke="none" fill="#100cc04" fill-rule="evenodd"></path><path id="path4" d="" stroke="none" fill="#100cc04" fill-rule="evenodd"></path></g></svg>