<svg id="svg" xmlns="http://www.w3.org/2000/svg" xmlns:xlink="http://www.w3.org/1999/xlink" width="400" height="400" viewBox="0, 0, 400,400"><g id="svgg"><path id="path0" d="M12.600 0.291 C 11.940 0.385,11.220 0.654,11.000 0.889 C 10.722 1.187,10.783 1.219,11.200 0.995 C 11.530 0.817,11.660 0.825,11.490 1.013 C 11.319 1.200,10.783 1.414,10.299 1.488 C 9.815 1.562,9.271 1.887,9.090 2.211 C 8.909 2.535,8.409 2.800,7.980 2.800 C 7.540 2.800,7.200 3.072,7.200 3.424 C 7.200 3.767,7.019 3.935,6.797 3.798 C 6.576 3.661,6.286 3.831,6.154 4.175 C 6.022 4.519,5.664 4.800,5.357 4.800 C 5.051 4.800,4.800 5.051,4.800 5.357 C 4.800 5.664,4.527 6.019,4.194 6.147 C 3.596 6.376,2.601 8.289,2.745 8.930 C 2.786 9.111,2.634 9.145,2.407 9.004 C 2.180 8.864,1.874 9.076,1.726 9.475 C 1.579 9.874,1.288 10.315,1.079 10.455 C 0.265 11.001,0.223 17.358,0.111 156.718 C 0.006 288.423,0.050 300.426,0.638 300.318 C 1.389 300.180,41.095 260.735,40.904 260.318 C 40.833 260.162,41.230 259.737,41.786 259.372 C 43.224 258.430,80.024 221.562,79.834 221.255 C 79.747 221.115,124.957 221.044,180.299 221.098 C 246.770 221.163,281.085 221.061,281.403 220.798 C 281.667 220.578,282.889 220.376,284.119 220.347 C 285.604 220.313,286.425 220.112,286.565 219.748 C 286.688 219.427,287.361 219.200,288.187 219.200 C 289.176 219.200,289.600 219.020,289.600 218.600 C 289.600 218.259,289.959 218.000,290.433 218.000 C 290.915 218.000,292.082 217.140,293.203 215.958 C 294.268 214.835,295.334 214.035,295.570 214.182 C 295.816 214.333,296.003 214.137,296.007 213.724 C 296.011 213.326,296.461 212.576,297.007 212.058 C 297.553 211.540,298.000 210.775,298.000 210.358 C 298.000 209.941,298.270 209.600,298.600 209.600 C 298.996 209.600,299.200 209.204,299.200 208.433 C 299.200 207.792,299.411 207.196,299.670 207.110 C 299.957 207.014,300.166 205.913,300.208 204.272 C 300.246 202.797,300.423 201.457,300.602 201.295 C 300.782 201.133,300.799 201.225,300.641 201.500 C 300.482 201.775,300.543 202.000,300.776 202.000 C 301.620 202.000,301.344 20.924,300.500 20.432 C 299.833 20.044,299.833 20.024,300.500 20.012 C 301.011 20.003,301.200 19.670,301.200 18.776 C 301.200 18.063,301.033 17.656,300.800 17.800 C 300.562 17.947,300.383 17.429,300.357 16.524 C 300.280 13.748,300.204 13.399,299.700 13.500 C 299.367 13.567,299.200 13.067,299.200 12.000 C 299.200 10.550,298.953 10.219,297.959 10.333 C 297.827 10.348,297.803 9.919,297.906 9.380 C 298.041 8.673,297.916 8.400,297.459 8.400 C 297.080 8.400,296.911 8.175,297.040 7.839 C 297.171 7.498,296.774 6.994,296.028 6.553 C 295.353 6.154,294.800 5.672,294.800 5.483 C 294.800 5.293,294.260 4.598,293.600 3.938 C 292.940 3.278,292.400 2.876,292.400 3.045 C 292.400 3.213,292.042 2.967,291.605 2.497 C 291.168 2.028,290.470 1.709,290.055 1.789 C 289.549 1.887,289.316 1.718,289.350 1.278 C 289.387 0.789,289.043 0.616,288.000 0.597 C 287.230 0.584,286.347 0.416,286.038 0.225 C 285.654 -0.013,285.567 0.023,285.762 0.338 C 285.919 0.592,285.867 0.800,285.647 0.800 C 285.427 0.800,285.136 0.620,285.000 0.400 C 284.759 0.010,15.328 -0.098,12.600 0.291 M300.700 64.870 C 300.639 73.082,300.590 66.480,300.590 50.200 C 300.590 33.920,300.639 27.202,300.700 35.270 C 300.760 43.339,300.760 56.659,300.700 64.870 M338.800 169.189 L 338.800 258.800 209.191 258.800 L 79.582 258.800 79.612 282.574 C 79.633 299.114,79.772 306.391,80.071 306.490 C 80.307 306.569,80.500 307.124,80.500 307.724 C 80.500 308.324,80.669 308.919,80.875 309.046 C 81.081 309.174,81.418 309.721,81.624 310.263 C 81.862 310.890,82.181 311.143,82.499 310.960 C 82.775 310.801,82.872 310.813,82.716 310.987 C 82.307 311.440,83.465 313.500,84.415 314.008 C 84.859 314.246,85.100 314.639,84.949 314.882 C 84.799 315.125,84.850 315.216,85.062 315.085 C 85.274 314.954,85.885 315.376,86.419 316.023 C 86.954 316.671,87.714 317.200,88.108 317.200 C 88.502 317.200,88.929 317.470,89.055 317.800 C 89.182 318.130,89.514 318.400,89.794 318.400 C 90.073 318.400,90.517 318.659,90.780 318.976 C 91.099 319.360,91.869 319.515,93.085 319.440 C 94.697 319.342,94.826 319.392,94.180 319.864 C 93.567 320.312,111.944 320.400,206.524 320.400 C 283.462 320.400,319.600 320.531,319.600 320.810 C 319.600 321.035,320.050 321.391,320.600 321.600 C 321.150 321.809,321.603 322.210,321.607 322.490 C 321.615 323.096,323.110 324.551,324.100 324.916 C 324.485 325.059,324.803 325.406,324.807 325.687 C 324.815 326.295,326.308 327.750,327.300 328.116 C 327.685 328.259,328.003 328.606,328.007 328.887 C 328.015 329.495,329.508 330.950,330.500 331.316 C 330.885 331.459,331.203 331.806,331.207 332.087 C 331.215 332.695,332.708 334.150,333.700 334.516 C 334.085 334.659,334.403 335.006,334.407 335.287 C 334.415 335.895,335.908 337.350,336.900 337.716 C 337.285 337.859,337.603 338.206,337.607 338.487 C 337.615 339.095,339.108 340.550,340.100 340.916 C 340.485 341.059,340.803 341.406,340.807 341.687 C 340.815 342.295,342.308 343.750,343.300 344.116 C 343.685 344.259,344.003 344.606,344.007 344.887 C 344.015 345.495,345.508 346.950,346.500 347.316 C 346.885 347.459,347.203 347.806,347.207 348.087 C 347.215 348.695,348.708 350.150,349.700 350.516 C 350.085 350.659,350.403 351.006,350.407 351.287 C 350.415 351.895,351.908 353.350,352.900 353.716 C 353.285 353.859,353.603 354.206,353.607 354.487 C 353.615 355.095,355.108 356.550,356.100 356.916 C 356.485 357.059,356.803 357.406,356.807 357.687 C 356.815 358.295,358.308 359.750,359.300 360.116 C 359.685 360.259,360.003 360.606,360.007 360.887 C 360.015 361.495,361.508 362.950,362.500 363.316 C 362.885 363.459,363.203 363.806,363.207 364.087 C 363.215 364.695,364.708 366.150,365.700 366.516 C 366.085 366.659,366.403 367.006,366.407 367.287 C 366.415 367.895,367.908 369.350,368.900 369.716 C 369.285 369.859,369.603 370.206,369.607 370.487 C 369.615 371.095,371.108 372.550,372.100 372.916 C 372.485 373.059,372.803 373.406,372.807 373.687 C 372.815 374.295,374.308 375.750,375.300 376.116 C 375.685 376.259,376.003 376.606,376.007 376.887 C 376.015 377.495,377.508 378.950,378.500 379.316 C 378.885 379.459,379.203 379.806,379.207 380.087 C 379.215 380.695,380.708 382.150,381.700 382.516 C 382.085 382.659,382.403 383.006,382.407 383.287 C 382.415 383.895,383.908 385.350,384.900 385.716 C 385.285 385.859,385.603 386.206,385.607 386.487 C 385.615 387.095,387.108 388.550,388.100 388.916 C 388.485 389.059,388.803 389.406,388.807 389.687 C 388.815 390.295,390.308 391.750,391.300 392.116 C 391.685 392.259,392.003 392.606,392.007 392.887 C 392.015 393.495,393.508 394.950,394.500 395.316 C 394.885 395.459,395.203 395.806,395.207 396.087 C 395.215 396.695,396.708 398.150,397.700 398.516 C 398.085 398.659,398.400 399.051,398.400 399.387 C 398.400 399.733,398.748 400.000,399.200 400.000 C 400.201 400.000,400.501 95.050,399.500 94.683 C 399.117 94.543,399.110 94.383,399.469 94.001 C 400.024 93.410,399.706 92.288,399.090 92.668 C 398.820 92.835,398.761 92.679,398.928 92.245 C 399.072 91.867,398.922 91.148,398.594 90.647 C 398.266 90.146,398.118 89.616,398.265 89.468 C 398.413 89.321,398.233 89.200,397.867 89.200 C 397.422 89.200,397.200 88.867,397.200 88.200 C 397.200 87.548,396.976 87.200,396.557 87.200 C 396.150 87.200,395.999 86.980,396.145 86.600 C 396.285 86.235,396.145 86.000,395.787 86.000 C 395.464 86.000,395.200 85.730,395.200 85.400 C 395.200 85.070,394.930 84.800,394.600 84.800 C 394.270 84.800,394.000 84.620,394.000 84.400 C 394.000 84.180,393.730 84.000,393.400 84.000 C 393.070 84.000,392.800 83.730,392.800 83.400 C 392.800 82.884,391.569 82.561,390.314 82.748 C 390.157 82.771,390.132 82.523,390.257 82.195 C 390.403 81.815,390.245 81.600,389.819 81.600 C 389.436 81.600,389.269 81.413,389.425 81.160 C 389.618 80.847,389.454 80.850,388.857 81.169 C 388.160 81.543,388.058 81.515,388.252 81.009 C 388.423 80.562,388.215 80.400,387.466 80.400 C 386.906 80.400,386.342 80.230,386.214 80.023 C 386.072 79.794,376.705 79.632,362.390 79.612 L 338.800 79.579 338.800 169.189 M300.691 97.500 C 300.605 98.325,300.534 97.650,300.534 96.000 C 300.534 94.350,300.605 93.675,300.691 94.500 C 300.778 95.325,300.778 96.675,300.691 97.500 M300.700 174.531 C 300.642 187.989,300.594 176.860,300.594 149.800 C 300.594 122.740,300.642 111.729,300.700 125.331 C 300.758 138.933,300.758 161.073,300.700 174.531 " stroke="none" fill="#cccccc" fill-rule="evenodd"></path><path id="path1" d="M284.984 0.373 C 285.111 0.580,285.564 0.723,285.991 0.691 C 286.930 0.620,286.685 0.293,285.565 0.122 C 285.118 0.053,284.856 0.167,284.984 0.373 M2.332 8.173 C 1.789 8.898,1.770 9.067,2.232 9.067 C 2.544 9.067,2.712 8.978,2.603 8.870 C 2.495 8.762,2.611 8.428,2.860 8.127 C 3.110 7.827,3.243 7.513,3.157 7.430 C 3.071 7.346,2.699 7.681,2.332 8.173 M300.200 20.232 C 300.462 20.342,300.596 30.668,300.589 50.100 C 300.583 66.435,300.627 76.110,300.688 71.600 C 301.106 40.432,300.992 20.000,300.400 20.031 C 300.070 20.049,299.980 20.139,300.200 20.232 M390.287 82.118 C 390.169 82.425,390.408 82.661,390.874 82.696 C 391.516 82.744,391.572 82.649,391.181 82.177 C 390.595 81.471,390.537 81.467,390.287 82.118 M398.533 90.989 C 398.533 91.306,398.703 91.460,398.910 91.332 C 399.132 91.195,399.169 91.468,399.000 92.000 C 398.805 92.613,398.855 92.813,399.157 92.626 C 399.759 92.255,399.715 91.393,399.067 90.855 C 398.664 90.521,398.533 90.554,398.533 90.989 M300.534 96.000 C 300.534 97.650,300.605 98.325,300.691 97.500 C 300.778 96.675,300.778 95.325,300.691 94.500 C 300.605 93.675,300.534 94.350,300.534 96.000 M300.594 149.800 C 300.594 176.860,300.642 187.989,300.700 174.531 C 300.758 161.073,300.758 138.933,300.700 125.331 C 300.642 111.729,300.594 122.740,300.594 149.800 M293.800 215.292 C 293.140 215.977,292.887 216.329,293.237 216.073 C 293.587 215.816,294.021 215.740,294.201 215.903 C 294.381 216.067,294.407 215.988,294.258 215.729 C 294.101 215.454,294.324 215.151,294.794 215.002 C 295.237 214.861,295.600 214.578,295.600 214.373 C 295.600 213.721,295.035 214.009,293.800 215.292 " stroke="none" fill="#d0cccc" fill-rule="evenodd"></path><path id="path2" d="M284.984 0.373 C 285.111 0.580,285.564 0.723,285.991 0.691 C 286.930 0.620,286.685 0.293,285.565 0.122 C 285.118 0.053,284.856 0.167,284.984 0.373 M2.332 8.173 C 1.789 8.898,1.770 9.067,2.232 9.067 C 2.544 9.067,2.712 8.978,2.603 8.870 C 2.495 8.762,2.611 8.428,2.860 8.127 C 3.110 7.827,3.243 7.513,3.157 7.430 C 3.071 7.346,2.699 7.681,2.332 8.173 M300.200 20.232 C 300.462 20.342,300.596 30.668,300.589 50.100 C 300.583 66.435,300.627 76.110,300.688 71.600 C 301.106 40.432,300.992 20.000,300.400 20.031 C 300.070 20.049,299.980 20.139,300.200 20.232 M390.287 82.118 C 390.169 82.425,390.408 82.661,390.874 82.696 C 391.516 82.744,391.572 82.649,391.181 82.177 C 390.595 81.471,390.537 81.467,390.287 82.118 M398.533 90.989 C 398.533 91.306,398.703 91.460,398.910 91.332 C 399.132 91.195,399.169 91.468,399.000 92.000 C 398.805 92.613,398.855 92.813,399.157 92.626 C 399.759 92.255,399.715 91.393,399.067 90.855 C 398.664 90.521,398.533 90.554,398.533 90.989 M300.534 96.000 C 300.534 97.650,300.605 98.325,300.691 97.500 C 300.778 96.675,300.778 95.325,300.691 94.500 C 300.605 93.675,300.534 94.350,300.534 96.000 M300.594 149.800 C 300.594 176.860,300.642 187.989,300.700 174.531 C 300.758 161.073,300.758 138.933,300.700 125.331 C 300.642 111.729,300.594 122.740,300.594 149.800 M293.800 215.292 C 293.140 215.977,292.887 216.329,293.237 216.073 C 293.587 215.816,294.021 215.740,294.201 215.903 C 294.381 216.067,294.407 215.988,294.258 215.729 C 294.101 215.454,294.324 215.151,294.794 215.002 C 295.237 214.861,295.600 214.578,295.600 214.373 C 295.600 213.721,295.035 214.009,293.800 215.292 " stroke="none" fill="#d0cccc" fill-rule="evenodd"></path><path id="path3" d="M284.984 0.373 C 285.111 0.580,285.564 0.723,285.991 0.691 C 286.930 0.620,286.685 0.293,285.565 0.122 C 285.118 0.053,284.856 0.167,284.984 0.373 M2.332 8.173 C 1.789 8.898,1.770 9.067,2.232 9.067 C 2.544 9.067,2.712 8.978,2.603 8.870 C 2.495 8.762,2.611 8.428,2.860 8.127 C 3.110 7.827,3.243 7.513,3.157 7.430 C 3.071 7.346,2.699 7.681,2.332 8.173 M300.200 20.232 C 300.462 20.342,300.596 30.668,300.589 50.100 C 300.583 66.435,300.627 76.110,300.688 71.600 C 301.106 40.432,300.992 20.000,300.400 20.031 C 300.070 20.049,299.980 20.139,300.200 20.232 M390.287 82.118 C 390.169 82.425,390.408 82.661,390.874 82.696 C 391.516 82.744,391.572 82.649,391.181 82.177 C 390.595 81.471,390.537 81.467,390.287 82.118 M398.533 90.989 C 398.533 91.306,398.703 91.460,398.910 91.332 C 399.132 91.195,399.169 91.468,399.000 92.000 C 398.805 92.613,398.855 92.813,399.157 92.626 C 399.759 92.255,399.715 91.393,399.067 90.855 C 398.664 90.521,398.533 90.554,398.533 90.989 M300.534 96.000 C 300.534 97.650,300.605 98.325,300.691 97.500 C 300.778 96.675,300.778 95.325,300.691 94.500 C 300.605 93.675,300.534 94.350,300.534 96.000 M300.594 149.800 C 300.594 176.860,300.642 187.989,300.700 174.531 C 300.758 161.073,300.758 138.933,300.700 125.331 C 300.642 111.729,300.594 122.740,300.594 149.800 M293.800 215.292 C 293.140 215.977,292.887 216.329,293.237 216.073 C 293.587 215.816,294.021 215.740,294.201 215.903 C 294.381 216.067,294.407 215.988,294.258 215.729 C 294.101 215.454,294.324 215.151,294.794 215.002 C 295.237 214.861,295.600 214.578,295.600 214.373 C 295.600 213.721,295.035 214.009,293.800 215.292 " stroke="none" fill="#d0cccc" fill-rule="evenodd"></path><path id="path4" d="M284.984 0.373 C 285.111 0.580,285.564 0.723,285.991 0.691 C 286.930 0.620,286.685 0.293,285.565 0.122 C 285.118 0.053,284.856 0.167,284.984 0.373 M2.332 8.173 C 1.789 8.898,1.770 9.067,2.232 9.067 C 2.544 9.067,2.712 8.978,2.603 8.870 C 2.495 8.762,2.611 8.428,2.860 8.127 C 3.110 7.827,3.243 7.513,3.157 7.430 C 3.071 7.346,2.699 7.681,2.332 8.173 M300.200 20.232 C 300.462 20.342,300.596 30.668,300.589 50.100 C 300.583 66.435,300.627 76.110,300.688 71.600 C 301.106 40.432,300.992 20.000,300.400 20.031 C 300.070 20.049,299.980 20.139,300.200 20.232 M390.287 82.118 C 390.169 82.425,390.408 82.661,390.874 82.696 C 391.516 82.744,391.572 82.649,391.181 82.177 C 390.595 81.471,390.537 81.467,390.287 82.118 M398.533 90.989 C 398.533 91.306,398.703 91.460,398.910 91.332 C 399.132 91.195,399.169 91.468,399.000 92.000 C 398.805 92.613,398.855 92.813,399.157 92.626 C 399.759 92.255,399.715 91.393,399.067 90.855 C 398.664 90.521,398.533 90.554,398.533 90.989 M300.534 96.000 C 300.534 97.650,300.605 98.325,300.691 97.500 C 300.778 96.675,300.778 95.325,300.691 94.500 C 300.605 93.675,300.534 94.350,300.534 96.000 M300.594 149.800 C 300.594 176.860,300.642 187.989,300.700 174.531 C 300.758 161.073,300.758 138.933,300.700 125.331 C 300.642 111.729,300.594 122.740,300.594 149.800 M293.800 215.292 C 293.140 215.977,292.887 216.329,293.237 216.073 C 293.587 215.816,294.021 215.740,294.201 215.903 C 294.381 216.067,294.407 215.988,294.258 215.729 C 294.101 215.454,294.324 215.151,294.794 215.002 C 295.237 214.861,295.600 214.578,295.600 214.373 C 295.600 213.721,295.035 214.009,293.800 215.292 " stroke="none" fill="#d0cccc" fill-rule="evenodd"></path></g></svg>