<svg id="svg" xmlns="http://www.w3.org/2000/svg" xmlns:xlink="http://www.w3.org/1999/xlink" width="400" height="400" viewBox="0, 0, 400,400"><g id="svgg"><path id="path0" d="M17.306 2.300 C 17.193 2.596,16.389 2.800,15.334 2.800 C 14.248 2.800,13.649 2.956,13.800 3.200 C 13.936 3.420,13.666 3.600,13.200 3.600 C 12.629 3.600,12.451 3.763,12.653 4.100 C 12.828 4.391,12.639 4.350,12.200 4.000 C 11.786 3.670,11.565 3.599,11.711 3.842 C 11.858 4.088,11.538 4.482,10.987 4.733 C 10.444 4.980,10.000 5.367,10.000 5.591 C 10.000 5.816,9.550 6.000,9.000 6.000 C 8.450 6.000,8.000 6.178,8.000 6.395 C 8.000 7.068,6.680 8.373,6.261 8.114 C 6.027 7.969,5.969 8.142,6.119 8.534 C 6.301 9.008,6.161 9.200,5.632 9.200 C 5.170 9.200,4.910 9.465,4.944 9.900 C 4.975 10.289,4.764 10.551,4.470 10.490 C 4.179 10.430,4.055 10.565,4.194 10.790 C 4.333 11.016,4.290 11.200,4.098 11.200 C 3.906 11.200,3.502 11.830,3.200 12.600 C 2.898 13.370,2.406 14.000,2.108 14.000 C 1.809 14.000,1.594 14.225,1.630 14.500 C 1.813 15.912,1.580 16.988,1.215 16.411 C 0.695 15.588,0.249 16.790,0.483 18.384 C 0.578 19.029,0.507 19.466,0.326 19.354 C -0.011 19.146,0.108 282.889,0.446 284.925 C 0.549 285.543,0.836 286.175,1.083 286.328 C 1.331 286.481,1.612 287.235,1.709 288.003 C 1.805 288.771,2.090 289.355,2.342 289.300 C 2.594 289.245,2.800 289.579,2.800 290.043 C 2.800 290.609,2.988 290.814,3.372 290.666 C 3.780 290.510,3.923 290.721,3.872 291.402 C 3.832 291.927,3.960 292.351,4.155 292.344 C 4.700 292.325,5.145 293.247,4.987 294.066 C 4.903 294.504,5.079 294.800,5.423 294.800 C 5.740 294.800,6.000 294.978,6.000 295.195 C 6.000 295.816,7.320 297.200,7.913 297.200 C 8.207 297.200,8.336 297.380,8.200 297.600 C 8.059 297.828,8.410 298.000,9.019 298.000 C 9.803 298.000,10.025 298.159,9.855 298.600 C 9.702 299.001,9.872 299.200,10.370 299.200 C 10.779 299.200,11.221 299.478,11.352 299.819 C 11.482 300.159,11.817 300.408,12.095 300.371 C 13.116 300.238,13.641 300.410,13.400 300.800 C 13.253 301.038,13.729 301.200,14.576 301.200 C 15.575 301.200,16.000 301.379,16.000 301.800 C 16.000 302.272,16.558 302.400,18.624 302.400 C 20.616 302.400,21.175 302.520,20.947 302.900 C 20.755 303.219,20.899 303.195,21.346 302.832 C 21.950 302.342,22.028 302.342,21.923 302.832 C 21.817 303.322,46.255 303.414,199.300 303.500 C 313.742 303.565,376.800 303.463,376.800 303.213 C 376.800 303.000,377.070 302.929,377.400 303.055 C 377.730 303.182,378.000 303.086,378.000 302.843 C 378.000 302.596,378.680 302.400,379.539 302.400 C 380.476 302.400,381.420 302.103,381.953 301.641 C 382.478 301.185,383.158 300.969,383.655 301.098 C 384.133 301.223,384.626 301.081,384.824 300.761 C 385.012 300.456,385.489 300.205,385.883 300.203 C 386.277 300.202,386.555 299.975,386.500 299.700 C 386.370 299.049,387.073 299.049,387.335 299.700 C 387.496 300.100,387.543 300.100,387.568 299.700 C 387.586 299.425,387.870 299.200,388.200 299.200 C 388.530 299.200,388.800 298.930,388.800 298.600 C 388.800 298.270,389.070 298.000,389.400 298.000 C 389.730 298.000,390.000 297.730,390.000 297.400 C 390.000 297.070,390.135 296.821,390.300 296.847 C 390.465 296.873,390.960 296.861,391.400 296.819 L 392.200 296.744 391.400 296.400 C 390.637 296.072,390.641 296.055,391.500 296.028 C 391.995 296.013,392.400 295.751,392.400 295.447 C 392.400 295.142,392.760 294.799,393.200 294.684 C 393.679 294.559,394.000 294.138,394.000 293.637 C 394.000 293.160,394.258 292.800,394.600 292.800 C 394.930 292.800,395.200 292.530,395.200 292.200 C 395.200 291.870,395.375 291.600,395.590 291.600 C 396.165 291.600,397.200 289.401,397.200 288.177 C 397.200 287.397,397.359 287.176,397.800 287.345 C 398.208 287.501,398.400 287.323,398.400 286.787 C 398.400 286.354,398.568 286.000,398.773 286.000 C 399.434 286.000,399.687 284.388,399.133 283.704 C 398.683 283.149,398.688 283.100,399.168 283.389 C 399.585 283.640,399.673 283.567,399.499 283.114 C 399.369 282.775,399.429 282.331,399.632 282.128 C 400.019 281.741,399.952 70.385,399.564 69.096 C 399.447 68.709,399.111 68.169,398.817 67.896 C 398.387 67.497,398.345 67.509,398.603 67.962 C 398.818 68.338,398.771 68.429,398.462 68.238 C 397.770 67.811,397.905 67.204,398.700 67.168 C 399.118 67.150,399.199 67.056,398.900 66.935 C 398.625 66.824,398.400 66.298,398.400 65.767 C 398.400 65.089,398.176 64.800,397.652 64.800 C 397.129 64.800,396.919 64.530,396.952 63.900 C 396.982 63.331,396.798 63.043,396.451 63.116 C 396.108 63.189,395.988 63.008,396.131 62.635 C 396.270 62.273,395.896 61.647,395.180 61.045 C 394.531 60.499,394.000 59.943,394.000 59.809 C 394.000 59.676,393.640 59.180,393.200 58.708 C 392.760 58.236,392.400 57.984,392.400 58.149 C 392.400 58.314,391.877 57.877,391.238 57.177 C 390.599 56.478,389.892 56.020,389.666 56.159 C 389.440 56.299,389.125 56.202,388.966 55.945 C 388.785 55.652,388.850 55.584,389.138 55.762 C 389.776 56.156,389.718 55.661,389.048 54.990 C 388.744 54.687,388.384 54.550,388.248 54.686 C 388.111 54.822,388.000 54.738,388.000 54.498 C 388.000 54.259,387.460 53.945,386.800 53.800 C 386.140 53.655,385.600 53.371,385.600 53.168 C 385.600 52.966,385.330 52.800,385.000 52.800 C 384.670 52.800,384.400 52.622,384.400 52.405 C 384.400 52.187,383.676 51.894,382.791 51.752 C 381.906 51.611,381.086 51.339,380.968 51.147 C 380.847 50.953,341.085 50.800,290.376 50.800 L 200.000 50.800 200.000 49.987 C 200.000 49.541,199.730 49.071,199.400 48.945 C 199.070 48.818,198.800 48.439,198.800 48.101 C 198.800 47.764,198.485 47.243,198.100 46.943 C 197.446 46.434,197.450 46.416,198.169 46.668 C 198.786 46.885,198.885 46.800,198.669 46.237 C 198.521 45.851,198.400 45.449,198.400 45.344 C 198.400 45.239,198.252 45.244,198.070 45.357 C 197.889 45.469,197.754 45.164,197.770 44.680 C 197.787 44.196,197.605 43.835,197.367 43.878 C 197.128 43.921,196.933 43.703,196.933 43.395 C 196.933 43.087,197.083 42.928,197.267 43.041 C 197.450 43.155,197.600 43.072,197.600 42.857 C 197.600 42.642,197.436 42.407,197.236 42.333 C 197.036 42.260,196.777 41.588,196.661 40.839 C 196.545 40.091,196.237 39.346,195.975 39.185 C 195.714 39.023,195.500 38.424,195.500 37.853 C 195.500 37.282,195.342 36.912,195.150 37.031 C 194.858 37.212,194.698 36.361,194.834 35.345 C 194.853 35.204,194.628 34.937,194.334 34.751 C 193.900 34.475,193.908 34.411,194.376 34.406 C 194.831 34.401,194.811 34.294,194.285 33.900 C 193.917 33.625,193.574 32.801,193.521 32.070 C 193.468 31.338,193.257 30.635,193.051 30.508 C 192.834 30.374,192.813 30.497,193.000 30.800 C 193.214 31.146,193.167 31.227,192.862 31.038 C 192.608 30.881,192.400 30.325,192.400 29.802 C 192.400 29.280,192.192 28.345,191.938 27.726 C 191.683 27.107,191.458 26.330,191.438 26.000 C 191.417 25.670,191.116 25.446,190.769 25.502 C 190.261 25.584,190.158 25.253,190.240 23.802 C 190.316 22.460,190.196 22.000,189.771 22.000 C 189.401 22.000,189.200 21.570,189.200 20.776 C 189.200 19.904,189.056 19.639,188.700 19.853 C 188.409 20.028,188.450 19.839,188.800 19.400 C 189.150 18.961,189.191 18.772,188.900 18.947 C 188.421 19.234,188.206 18.565,188.370 17.300 C 188.406 17.025,188.253 16.800,188.030 16.800 C 187.807 16.800,187.729 16.530,187.855 16.200 C 187.982 15.870,187.886 15.600,187.643 15.600 C 187.399 15.600,187.200 15.144,187.200 14.587 C 187.200 14.031,186.930 13.471,186.600 13.345 C 186.270 13.218,186.000 12.755,186.000 12.315 C 186.000 11.875,185.550 11.161,185.000 10.729 C 184.450 10.296,184.000 9.744,184.000 9.502 C 184.000 8.751,182.753 7.643,182.162 7.870 C 181.840 7.994,181.600 7.840,181.600 7.510 C 181.600 7.194,181.150 6.694,180.600 6.400 C 180.050 6.106,179.600 5.637,179.600 5.359 C 179.600 5.081,179.240 4.740,178.800 4.600 C 178.360 4.460,178.000 4.159,178.000 3.930 C 178.000 3.702,177.723 3.621,177.385 3.750 C 177.035 3.885,176.672 3.731,176.542 3.393 C 176.417 3.067,175.884 2.800,175.357 2.800 C 174.831 2.800,174.400 2.575,174.400 2.300 C 174.400 1.902,158.443 1.800,95.949 1.800 C 33.557 1.800,17.459 1.902,17.306 2.300 M380.800 51.600 C 380.800 52.101,380.376 52.101,379.600 51.600 C 379.115 51.286,379.172 51.211,379.900 51.206 C 380.395 51.203,380.800 51.380,380.800 51.600 " stroke="none" fill="#cccccc" fill-rule="evenodd"></path><path id="path1" d="M59.132 1.900 C 79.224 1.957,111.984 1.957,131.932 1.900 C 151.879 1.843,135.440 1.796,95.400 1.796 C 55.360 1.796,39.039 1.843,59.132 1.900 M181.600 7.413 C 181.600 8.060,182.225 8.207,182.574 7.642 C 182.696 7.445,182.526 7.181,182.198 7.054 C 181.835 6.915,181.600 7.056,181.600 7.413 M190.267 24.667 C 189.764 25.170,190.000 25.550,190.780 25.492 C 191.369 25.447,191.455 25.307,191.131 24.916 C 190.634 24.318,190.620 24.314,190.267 24.667 M380.000 51.158 C 379.121 51.403,379.089 51.471,379.733 51.718 C 380.696 52.089,380.679 52.093,380.945 51.400 C 381.071 51.070,381.136 50.818,381.087 50.840 C 381.039 50.862,380.550 51.005,380.000 51.158 M389.100 55.065 C 389.375 55.176,389.600 55.442,389.600 55.657 C 389.600 55.872,389.392 55.919,389.138 55.762 C 388.841 55.578,388.785 55.653,388.983 55.973 C 389.188 56.304,389.424 56.336,389.690 56.070 C 390.162 55.598,389.759 54.786,389.076 54.832 C 388.733 54.854,388.739 54.919,389.100 55.065 M398.076 67.627 C 398.168 67.904,398.559 68.176,398.944 68.233 C 399.861 68.368,399.553 67.443,398.621 67.262 C 398.186 67.177,397.973 67.320,398.076 67.627 M397.200 287.700 C 397.200 288.012,397.475 288.267,397.811 288.267 C 398.503 288.267,398.400 287.533,397.675 287.292 C 397.414 287.205,397.200 287.388,397.200 287.700 M4.055 293.067 C 4.299 293.360,4.650 293.600,4.836 293.600 C 5.023 293.600,5.083 293.360,4.970 293.067 C 4.858 292.773,4.506 292.533,4.189 292.533 C 3.754 292.533,3.721 292.664,4.055 293.067 " stroke="none" fill="#d0cccc" fill-rule="evenodd"></path><path id="path2" d="M59.132 1.900 C 79.224 1.957,111.984 1.957,131.932 1.900 C 151.879 1.843,135.440 1.796,95.400 1.796 C 55.360 1.796,39.039 1.843,59.132 1.900 M181.600 7.413 C 181.600 8.060,182.225 8.207,182.574 7.642 C 182.696 7.445,182.526 7.181,182.198 7.054 C 181.835 6.915,181.600 7.056,181.600 7.413 M190.267 24.667 C 189.764 25.170,190.000 25.550,190.780 25.492 C 191.369 25.447,191.455 25.307,191.131 24.916 C 190.634 24.318,190.620 24.314,190.267 24.667 M380.000 51.158 C 379.121 51.403,379.089 51.471,379.733 51.718 C 380.696 52.089,380.679 52.093,380.945 51.400 C 381.071 51.070,381.136 50.818,381.087 50.840 C 381.039 50.862,380.550 51.005,380.000 51.158 M389.100 55.065 C 389.375 55.176,389.600 55.442,389.600 55.657 C 389.600 55.872,389.392 55.919,389.138 55.762 C 388.841 55.578,388.785 55.653,388.983 55.973 C 389.188 56.304,389.424 56.336,389.690 56.070 C 390.162 55.598,389.759 54.786,389.076 54.832 C 388.733 54.854,388.739 54.919,389.100 55.065 M398.076 67.627 C 398.168 67.904,398.559 68.176,398.944 68.233 C 399.861 68.368,399.553 67.443,398.621 67.262 C 398.186 67.177,397.973 67.320,398.076 67.627 M397.200 287.700 C 397.200 288.012,397.475 288.267,397.811 288.267 C 398.503 288.267,398.400 287.533,397.675 287.292 C 397.414 287.205,397.200 287.388,397.200 287.700 M4.055 293.067 C 4.299 293.360,4.650 293.600,4.836 293.600 C 5.023 293.600,5.083 293.360,4.970 293.067 C 4.858 292.773,4.506 292.533,4.189 292.533 C 3.754 292.533,3.721 292.664,4.055 293.067 " stroke="none" fill="#d0cccc" fill-rule="evenodd"></path><path id="path3" d="M59.132 1.900 C 79.224 1.957,111.984 1.957,131.932 1.900 C 151.879 1.843,135.440 1.796,95.400 1.796 C 55.360 1.796,39.039 1.843,59.132 1.900 M181.600 7.413 C 181.600 8.060,182.225 8.207,182.574 7.642 C 182.696 7.445,182.526 7.181,182.198 7.054 C 181.835 6.915,181.600 7.056,181.600 7.413 M190.267 24.667 C 189.764 25.170,190.000 25.550,190.780 25.492 C 191.369 25.447,191.455 25.307,191.131 24.916 C 190.634 24.318,190.620 24.314,190.267 24.667 M380.000 51.158 C 379.121 51.403,379.089 51.471,379.733 51.718 C 380.696 52.089,380.679 52.093,380.945 51.400 C 381.071 51.070,381.136 50.818,381.087 50.840 C 381.039 50.862,380.550 51.005,380.000 51.158 M389.100 55.065 C 389.375 55.176,389.600 55.442,389.600 55.657 C 389.600 55.872,389.392 55.919,389.138 55.762 C 388.841 55.578,388.785 55.653,388.983 55.973 C 389.188 56.304,389.424 56.336,389.690 56.070 C 390.162 55.598,389.759 54.786,389.076 54.832 C 388.733 54.854,388.739 54.919,389.100 55.065 M398.076 67.627 C 398.168 67.904,398.559 68.176,398.944 68.233 C 399.861 68.368,399.553 67.443,398.621 67.262 C 398.186 67.177,397.973 67.320,398.076 67.627 M397.200 287.700 C 397.200 288.012,397.475 288.267,397.811 288.267 C 398.503 288.267,398.400 287.533,397.675 287.292 C 397.414 287.205,397.200 287.388,397.200 287.700 M4.055 293.067 C 4.299 293.360,4.650 293.600,4.836 293.600 C 5.023 293.600,5.083 293.360,4.970 293.067 C 4.858 292.773,4.506 292.533,4.189 292.533 C 3.754 292.533,3.721 292.664,4.055 293.067 " stroke="none" fill="#d0cccc" fill-rule="evenodd"></path><path id="path4" d="M59.132 1.900 C 79.224 1.957,111.984 1.957,131.932 1.900 C 151.879 1.843,135.440 1.796,95.400 1.796 C 55.360 1.796,39.039 1.843,59.132 1.900 M181.600 7.413 C 181.600 8.060,182.225 8.207,182.574 7.642 C 182.696 7.445,182.526 7.181,182.198 7.054 C 181.835 6.915,181.600 7.056,181.600 7.413 M190.267 24.667 C 189.764 25.170,190.000 25.550,190.780 25.492 C 191.369 25.447,191.455 25.307,191.131 24.916 C 190.634 24.318,190.620 24.314,190.267 24.667 M380.000 51.158 C 379.121 51.403,379.089 51.471,379.733 51.718 C 380.696 52.089,380.679 52.093,380.945 51.400 C 381.071 51.070,381.136 50.818,381.087 50.840 C 381.039 50.862,380.550 51.005,380.000 51.158 M389.100 55.065 C 389.375 55.176,389.600 55.442,389.600 55.657 C 389.600 55.872,389.392 55.919,389.138 55.762 C 388.841 55.578,388.785 55.653,388.983 55.973 C 389.188 56.304,389.424 56.336,389.690 56.070 C 390.162 55.598,389.759 54.786,389.076 54.832 C 388.733 54.854,388.739 54.919,389.100 55.065 M398.076 67.627 C 398.168 67.904,398.559 68.176,398.944 68.233 C 399.861 68.368,399.553 67.443,398.621 67.262 C 398.186 67.177,397.973 67.320,398.076 67.627 M397.200 287.700 C 397.200 288.012,397.475 288.267,397.811 288.267 C 398.503 288.267,398.400 287.533,397.675 287.292 C 397.414 287.205,397.200 287.388,397.200 287.700 M4.055 293.067 C 4.299 293.360,4.650 293.600,4.836 293.600 C 5.023 293.600,5.083 293.360,4.970 293.067 C 4.858 292.773,4.506 292.533,4.189 292.533 C 3.754 292.533,3.721 292.664,4.055 293.067 " stroke="none" fill="#d0cccc" fill-rule="evenodd"></path></g></svg>