<svg id="svg" xmlns="http://www.w3.org/2000/svg" xmlns:xlink="http://www.w3.org/1999/xlink" width="400" height="400" viewBox="0, 0, 400,400"><g id="svgg"><path id="path0" d="M21.948 1.998 C 21.831 2.327,21.389 2.597,20.967 2.598 C 20.545 2.599,20.232 2.785,20.271 3.012 C 20.350 3.476,18.813 3.503,18.080 3.049 C 17.816 2.886,17.600 2.943,17.600 3.176 C 17.600 3.409,17.409 3.600,17.176 3.600 C 16.943 3.600,16.864 3.420,17.000 3.200 C 17.138 2.977,16.839 2.803,16.324 2.806 C 15.581 2.811,15.517 2.888,16.000 3.200 C 16.400 3.458,16.433 3.590,16.100 3.594 C 15.825 3.597,15.600 3.892,15.600 4.249 C 15.600 4.780,15.491 4.808,15.000 4.400 C 14.546 4.024,14.400 4.019,14.400 4.380 C 14.400 4.664,14.116 4.572,13.700 4.154 C 13.032 3.483,12.994 3.489,12.877 4.285 C 12.790 4.883,12.361 5.193,11.366 5.380 C 10.603 5.523,10.083 5.811,10.212 6.020 C 10.342 6.229,10.246 6.400,10.000 6.400 C 9.754 6.400,9.664 6.580,9.800 6.800 C 9.936 7.020,9.666 7.200,9.200 7.200 C 8.701 7.200,8.461 7.376,8.617 7.627 C 8.762 7.862,8.504 8.152,8.045 8.272 C 7.585 8.393,7.308 8.650,7.428 8.845 C 7.549 9.040,7.446 9.200,7.200 9.200 C 6.954 9.200,6.883 9.411,7.042 9.668 C 7.238 9.985,7.111 10.051,6.645 9.873 C 6.240 9.717,6.058 9.770,6.201 10.001 C 6.334 10.217,5.939 10.890,5.323 11.497 C 3.812 12.985,3.133 14.358,3.435 15.311 C 3.602 15.837,3.537 16.008,3.238 15.824 C 2.959 15.651,2.699 16.007,2.547 16.767 C 2.412 17.438,2.145 17.889,1.951 17.770 C 1.758 17.650,1.600 17.754,1.600 18.000 C 1.600 18.246,1.375 18.320,1.100 18.165 C 0.716 17.948,0.708 18.000,1.067 18.388 C 1.426 18.777,1.356 19.210,0.767 20.259 C -0.115 21.828,-0.479 280.400,0.400 280.400 C 0.620 280.400,0.800 280.760,0.800 281.200 C 0.800 281.640,1.025 282.003,1.300 282.006 C 1.660 282.011,1.645 282.110,1.246 282.363 C 0.431 282.879,1.006 284.649,2.096 284.976 C 2.955 285.233,2.962 285.262,2.220 285.557 C 1.480 285.851,1.493 285.913,2.490 286.779 C 3.067 287.281,3.453 287.918,3.347 288.194 C 3.241 288.471,3.447 288.990,3.806 289.348 C 4.164 289.707,4.341 290.000,4.200 290.000 C 4.059 290.000,4.213 290.270,4.543 290.600 C 4.873 290.930,5.381 291.203,5.671 291.206 C 6.066 291.211,6.048 291.320,5.600 291.637 C 5.133 291.967,5.114 292.107,5.517 292.269 C 5.913 292.429,5.925 292.608,5.568 293.039 C 5.192 293.492,5.274 293.600,5.994 293.600 C 6.545 293.600,6.812 293.792,6.693 294.102 C 6.514 294.569,7.521 295.854,7.990 295.756 C 8.555 295.639,10.037 297.008,10.246 297.841 C 10.427 298.560,10.639 298.704,11.141 298.446 C 12.083 297.963,12.792 298.327,13.249 299.528 C 13.571 300.377,13.718 300.463,14.030 299.986 C 14.360 299.484,14.474 299.501,14.832 300.108 C 15.061 300.498,15.418 300.712,15.625 300.585 C 15.831 300.457,16.000 300.523,16.000 300.732 C 16.000 301.191,17.301 301.136,17.647 300.662 C 17.783 300.476,18.016 300.810,18.166 301.405 C 18.445 302.519,19.017 302.596,20.966 301.783 C 21.540 301.544,21.651 301.594,21.411 301.983 C 21.174 302.366,21.254 302.410,21.717 302.151 C 22.074 301.950,98.462 301.886,199.733 302.000 C 297.298 302.110,377.048 302.078,376.956 301.928 C 376.863 301.778,377.419 301.688,378.192 301.728 C 378.964 301.768,379.600 301.980,379.604 302.200 C 379.609 302.420,379.787 302.330,380.000 302.000 C 380.345 301.467,380.393 301.467,380.434 302.000 C 380.459 302.330,380.605 302.150,380.759 301.600 C 381.007 300.714,381.228 300.612,382.708 300.703 C 384.118 300.789,384.338 300.703,384.123 300.143 C 383.916 299.603,384.066 299.519,384.944 299.687 C 385.535 299.800,386.115 299.737,386.233 299.546 C 386.351 299.356,386.257 299.200,386.024 299.200 C 385.791 299.200,385.600 299.026,385.600 298.813 C 385.600 298.599,385.868 298.528,386.197 298.654 C 386.542 298.787,386.901 298.603,387.048 298.219 C 387.188 297.853,387.550 297.649,387.852 297.764 C 388.153 297.880,388.400 297.806,388.400 297.600 C 388.400 297.394,388.672 297.329,389.005 297.457 C 389.438 297.624,389.539 297.506,389.360 297.040 C 389.176 296.560,389.280 296.456,389.760 296.640 C 390.239 296.824,390.344 296.720,390.162 296.245 C 389.984 295.783,390.144 295.600,390.725 295.600 C 391.543 295.600,393.333 293.229,393.333 292.145 C 393.333 291.845,393.638 291.600,394.011 291.600 C 394.516 291.600,394.641 291.348,394.501 290.615 C 394.344 289.795,394.449 289.655,395.127 289.786 C 395.736 289.903,396.045 289.647,396.350 288.771 C 396.575 288.127,396.633 287.595,396.479 287.588 C 396.326 287.581,396.515 287.392,396.900 287.168 C 397.285 286.944,397.600 286.319,397.600 285.780 C 397.600 285.241,397.825 284.794,398.100 284.787 C 398.401 284.780,398.317 284.560,397.888 284.235 C 397.294 283.784,397.273 283.657,397.762 283.470 C 398.085 283.346,398.420 283.460,398.508 283.722 C 398.596 283.985,398.761 283.710,398.876 283.112 C 398.991 282.514,398.930 282.119,398.742 282.236 C 398.554 282.352,398.400 282.257,398.400 282.024 C 398.400 281.791,398.610 281.600,398.867 281.600 C 399.123 281.600,399.220 281.486,399.081 281.347 C 398.942 281.208,399.010 280.756,399.231 280.342 C 399.453 279.927,399.492 279.636,399.317 279.694 C 398.987 279.804,398.800 279.482,398.800 278.800 C 398.800 278.580,399.025 278.445,399.300 278.500 C 399.699 278.580,399.820 257.964,399.901 176.700 C 399.956 120.655,399.866 74.821,399.701 74.847 C 398.567 75.027,398.416 74.747,399.091 73.715 C 399.481 73.119,399.587 72.762,399.328 72.922 C 399.068 73.082,398.742 73.030,398.604 72.807 C 398.466 72.583,398.588 72.397,398.876 72.394 C 399.257 72.389,399.236 72.282,398.800 72.000 C 398.470 71.787,398.404 71.609,398.653 71.606 C 398.903 71.603,399.204 71.230,399.322 70.777 C 399.509 70.063,399.452 70.023,398.892 70.477 C 398.406 70.871,398.321 70.876,398.549 70.497 C 398.719 70.214,398.584 69.727,398.242 69.385 C 397.908 69.051,397.730 68.526,397.848 68.220 C 398.106 67.546,397.291 65.897,396.838 66.177 C 396.661 66.286,396.603 65.920,396.709 65.364 C 396.859 64.577,396.711 64.302,396.043 64.127 C 395.365 63.950,395.280 63.786,395.641 63.351 C 396.007 62.909,395.910 62.799,395.149 62.794 C 394.367 62.789,394.306 62.712,394.800 62.359 C 395.278 62.018,395.208 61.973,394.460 62.138 C 393.944 62.252,393.627 62.240,393.757 62.110 C 393.887 61.980,393.770 61.597,393.497 61.260 C 393.100 60.771,393.101 60.707,393.500 60.947 C 393.853 61.159,393.998 60.917,393.994 60.124 C 393.990 59.325,393.886 59.160,393.638 59.553 C 393.362 59.988,393.230 59.926,393.019 59.261 C 392.872 58.796,392.595 58.458,392.404 58.508 C 392.213 58.559,391.760 58.240,391.399 57.800 C 391.037 57.360,390.874 57.256,391.037 57.569 C 391.479 58.420,389.686 57.101,388.927 56.018 C 388.453 55.340,388.210 55.260,387.764 55.630 C 387.321 55.998,387.200 55.968,387.200 55.488 C 387.200 55.153,386.660 54.690,386.000 54.460 C 385.270 54.206,384.798 53.759,384.794 53.321 C 384.790 52.894,384.668 52.773,384.494 53.025 C 384.288 53.322,383.930 53.311,383.302 52.989 C 382.809 52.736,382.496 52.437,382.608 52.325 C 382.720 52.214,382.269 52.107,381.606 52.088 C 380.928 52.069,380.397 52.261,380.394 52.527 C 380.390 52.807,380.229 52.755,380.000 52.400 C 379.787 52.070,379.609 51.939,379.606 52.109 C 379.603 52.279,379.151 52.125,378.603 51.765 C 378.055 51.406,377.335 51.216,377.003 51.343 C 376.671 51.471,376.400 51.446,376.400 51.287 C 376.400 51.129,336.628 51.046,288.017 51.102 L 199.634 51.204 198.847 50.358 C 198.413 49.893,198.158 49.253,198.280 48.937 C 198.401 48.620,198.163 48.087,197.750 47.751 C 197.338 47.415,197.270 47.279,197.600 47.447 C 198.075 47.690,198.108 47.634,197.755 47.177 C 197.510 46.860,197.190 46.098,197.043 45.484 C 196.897 44.870,196.624 44.461,196.438 44.576 C 196.252 44.691,196.100 44.342,196.100 43.800 C 196.100 43.177,196.266 42.914,196.550 43.084 C 196.798 43.232,196.760 43.057,196.466 42.694 C 196.172 42.332,196.065 41.802,196.230 41.518 C 196.394 41.233,196.388 41.126,196.217 41.281 C 195.851 41.610,194.800 40.663,194.800 40.005 C 194.800 39.756,194.998 39.675,195.240 39.825 C 195.557 40.021,195.561 39.875,195.254 39.301 C 195.020 38.863,194.942 38.392,195.081 38.253 C 195.220 38.114,195.023 38.000,194.643 38.000 C 194.263 38.000,194.055 37.835,194.179 37.634 C 194.303 37.433,194.179 37.185,193.902 37.084 C 193.530 36.947,193.516 36.777,193.849 36.421 C 194.358 35.878,193.705 34.013,193.000 33.997 C 192.780 33.992,192.870 33.813,193.200 33.600 C 193.756 33.241,193.135 33.004,191.967 33.130 C 191.838 33.144,191.733 32.903,191.733 32.595 C 191.733 32.287,191.928 32.144,192.167 32.276 C 192.405 32.409,192.383 32.283,192.119 31.997 C 191.783 31.634,191.758 31.253,192.036 30.733 C 192.255 30.324,192.292 30.012,192.117 30.042 C 190.848 30.254,190.387 29.971,190.786 29.226 C 191.335 28.200,191.308 27.892,190.700 28.235 C 190.300 28.461,190.300 28.410,190.700 27.979 C 191.374 27.252,191.333 26.663,190.627 26.934 C 190.264 27.074,190.063 26.906,190.079 26.477 C 190.132 25.068,189.592 23.383,188.932 22.901 C 188.446 22.545,188.406 22.400,188.793 22.400 C 189.149 22.400,189.001 22.028,188.370 21.335 C 187.836 20.750,187.670 20.425,188.000 20.612 C 188.506 20.900,188.519 20.853,188.083 20.315 C 187.786 19.948,187.659 19.192,187.785 18.538 C 187.906 17.912,187.896 17.635,187.762 17.921 C 187.504 18.475,186.432 17.421,186.419 16.600 C 186.415 16.380,186.606 16.470,186.844 16.800 C 187.190 17.282,187.219 17.242,186.990 16.600 C 186.833 16.160,186.696 15.575,186.686 15.300 C 186.675 15.025,186.416 14.800,186.110 14.800 C 185.803 14.800,185.654 14.636,185.778 14.436 C 186.232 13.701,185.559 12.886,184.674 13.099 C 183.958 13.271,183.891 13.212,184.300 12.774 C 184.894 12.139,184.974 11.045,184.400 11.400 C 184.180 11.536,184.000 11.457,184.000 11.224 C 184.000 10.991,183.685 10.786,183.300 10.768 C 182.915 10.751,182.815 10.649,183.078 10.543 C 183.613 10.325,183.325 9.200,182.734 9.200 C 182.524 9.200,182.481 9.408,182.638 9.662 C 182.821 9.957,182.747 10.015,182.435 9.821 C 182.166 9.655,182.050 9.247,182.177 8.915 C 182.335 8.504,182.225 8.382,181.832 8.532 C 181.430 8.687,181.299 8.524,181.401 7.997 C 181.527 7.340,181.413 7.291,180.537 7.624 C 179.685 7.948,179.494 7.882,179.317 7.204 C 179.201 6.762,178.847 6.400,178.530 6.400 C 178.212 6.400,178.064 6.220,178.200 6.000 C 178.417 5.648,177.588 5.407,176.683 5.558 C 176.508 5.588,176.553 5.262,176.782 4.834 C 177.166 4.117,177.105 4.083,175.999 4.400 C 174.883 4.720,174.798 4.670,174.768 3.672 C 174.751 3.082,174.646 2.826,174.534 3.102 C 174.423 3.379,174.127 3.478,173.876 3.323 C 173.625 3.168,172.966 3.032,172.410 3.021 C 171.771 3.008,171.443 2.798,171.516 2.451 C 171.587 2.115,171.408 1.988,171.055 2.123 C 170.738 2.245,170.397 2.264,170.298 2.164 C 169.854 1.721,23.036 2.017,22.762 2.462 C 22.583 2.751,22.423 2.641,22.322 2.158 C 22.197 1.566,22.115 1.531,21.948 1.998 " stroke="none" fill="#fccc04" fill-rule="evenodd"></path><path id="path1" d="" stroke="none" fill="#100cc04" fill-rule="evenodd"></path><path id="path2" d="" stroke="none" fill="#100cc04" fill-rule="evenodd"></path><path id="path3" d="" stroke="none" fill="#100cc04" fill-rule="evenodd"></path><path id="path4" d="" stroke="none" fill="#100cc04" fill-rule="evenodd"></path></g></svg>